<?xml version="1.0" standalone="no"?>
<!DOCTYPE svg PUBLIC "-//W3C//DTD SVG 1.1//EN" "http://www.w3.org/Graphics/SVG/1.1/DTD/svg11.dtd" >
<svg xmlns="http://www.w3.org/2000/svg" xmlns:xlink="http://www.w3.org/1999/xlink" version="1.1">
<metadata></metadata>
<defs>
<font id="evolventaregular" horiz-adv-x="1134" >
<font-face units-per-em="2048" ascent="1638" descent="-410" />
<missing-glyph horiz-adv-x="567" />
<glyph horiz-adv-x="0" />
<glyph unicode="&#xd;" horiz-adv-x="682" />
<glyph unicode=" "  horiz-adv-x="567" />
<glyph unicode="&#x09;" horiz-adv-x="567" />
<glyph unicode="&#xa0;" horiz-adv-x="567" />
<glyph unicode="!" horiz-adv-x="604" d="M227 0v258h152v-258h-152zM227 403v1110h152v-1110h-152z" />
<glyph unicode="&#x22;" horiz-adv-x="632" d="M152 1051v462h102v-462h-102zM383 1051v462h102v-462h-102z" />
<glyph unicode="#" d="M10 485v125h228l59 318h-254v125h276l87 460h131l-84 -460h333l82 460h138l-84 -460h202v-125h-225l-57 -318h252v-125h-277l-88 -485h-135l88 485h-336l-92 -485h-133l92 485h-203zM371 610h334l59 318h-334z" />
<glyph unicode="$" d="M152 467h143q8 -134 79.5 -208.5t192.5 -74.5q115 0 188.5 77.5t73.5 197.5q0 125 -86 198q-56 45 -190 86q-115 35 -171.5 67t-96.5 83q-80 96 -80 237q0 139 80 236t217 125v168h135v-168q151 -23 238.5 -121t93.5 -250h-144q-6 114 -68.5 178t-168.5 64t-169 -66 t-63 -178q0 -95 52 -145t198 -96q108 -35 164.5 -64t97.5 -70q113 -107 113 -280q0 -163 -96 -276t-248 -128v-174h-135v174q-350 65 -350 408z" />
<glyph unicode="%" horiz-adv-x="1587" d="M27 1174q0 151 105.5 255.5t258.5 104.5q145 0 249.5 -106t104.5 -254q0 -149 -105.5 -255t-254.5 -106q-148 0 -253 106t-105 255zM162 1174q0 -94 65.5 -160t157.5 -66q91 0 156 65.5t65 157.5q0 97 -65 162.5t-160 65.5q-89 0 -154 -66.5t-65 -158.5zM373 0l680 1513 h151l-684 -1513h-147zM821 332q0 152 105.5 256t259.5 104q145 0 249.5 -106t104.5 -252q0 -149 -105.5 -255t-254.5 -106q-148 0 -253.5 105.5t-105.5 253.5zM958 334q0 -93 65.5 -159t156.5 -66q92 0 156.5 65.5t64.5 157.5q0 95 -64.5 160t-158.5 65q-90 0 -155 -66 t-65 -157z" />
<glyph unicode="&#x26;" horiz-adv-x="1550" d="M117 436q0 210 172 344q66 51 176 107q-95 100 -131.5 168.5t-36.5 148.5q0 141 103.5 238.5t254.5 97.5q157 0 261 -98.5t104 -247.5q0 -167 -143 -266q-28 -23 -152 -86l287 -283l221 426h168l-279 -534l383 -373l-104 -105l-350 340q-89 -179 -197.5 -259.5 t-259.5 -80.5q-204 0 -340.5 132.5t-136.5 330.5zM266 420q0 -129 92.5 -219t225.5 -90q109 0 190 71t164 240l-365 356q-169 -82 -238 -162.5t-69 -195.5zM449 1208q0 -58 37.5 -117t127.5 -141q135 53 199 115t64 141q0 85 -62 141t-156 56q-89 0 -149.5 -56.5 t-60.5 -138.5z" />
<glyph unicode="'" horiz-adv-x="405" d="M152 1051v462h102v-462h-102z" />
<glyph unicode="(" horiz-adv-x="755" d="M117 633q0 194 78.5 382t216.5 328q62 64 123 101.5t151 68.5v-129q-91 -56 -154 -117.5t-118 -150.5q-146 -237 -146 -483q0 -149 54 -300t151 -274q79 -100 213 -182v-133q-119 43 -208.5 115t-174.5 194q-186 265 -186 580z" />
<glyph unicode=")" horiz-adv-x="755" d="M70 -125q91 54 154 116t118 152q145 236 145 484q0 148 -53.5 299t-150.5 272q-79 100 -213 182v133q120 -43 209 -114.5t174 -192.5q186 -265 186 -581q0 -193 -78.5 -382t-216.5 -329q-64 -63 -124.5 -101t-149.5 -69v131z" />
<glyph unicode="*" horiz-adv-x="870" d="M131 1194v106l215 -6l-115 189l101 57l108 -184l107 184l96 -57l-117 -189l211 6v-106l-209 4l113 -184l-96 -56l-109 187l-108 -187l-99 58l117 182z" />
<glyph unicode="+" horiz-adv-x="1241" d="M104 547v151h439v443h157v-443h437v-151h-437v-447h-157v447h-439z" />
<glyph unicode="," horiz-adv-x="567" d="M186 -137l181 395h151l-180 -395h-152z" />
<glyph unicode="-" horiz-adv-x="679" d="M63 477v129h555v-129h-555z" />
<glyph unicode="." horiz-adv-x="567" d="M207 0v258h151v-258h-151z" />
<glyph unicode="/" horiz-adv-x="894" d="M82 -262l588 1775h143l-594 -1775h-137z" />
<glyph unicode="0" d="M61 551v430q0 138 27.5 232.5t89.5 166.5q66 78 166 119t223 41q139 0 249.5 -55t178.5 -158q44 -68 62 -145t18 -201v-430q0 -268 -98 -399q-129 -179 -397 -179q-157 0 -272 60.5t-179 177.5q-68 127 -68 340zM211 575q0 -226 72 -329q101 -135 290 -135 q109 0 189.5 44.5t118.5 127.5q45 95 45 292v371q0 128 -17 202t-59 128q-98 127 -281 127q-102 0 -184 -45t-125 -123q-49 -91 -49 -289v-371z" />
<glyph unicode="1" d="M317 1376v137h408v-1513h-150v1376h-258z" />
<glyph unicode="2" d="M68 0v137l530 512q98 94 121.5 118t58.5 67q107 124 107 253q0 138 -92.5 227t-235.5 89q-100 0 -177.5 -47.5t-115.5 -130.5q-35 -74 -35 -201h-149q0 80 6.5 123.5t26.5 97.5q53 138 170.5 216.5t275.5 78.5q207 0 342 -130t135 -331q0 -122 -59 -223.5t-219 -253.5 l-486 -465h756v-137h-960z" />
<glyph unicode="3" d="M68 473h149q6 -83 20.5 -131.5t45.5 -91.5q46 -66 116.5 -102.5t153.5 -36.5q140 0 234 97.5t94 242.5q0 120 -71 211.5t-185 119.5q-54 11 -176 13v135q59 -4 73 -4q119 0 188.5 64.5t69.5 174.5q0 104 -64 171t-165 67q-110 0 -171.5 -69.5t-62.5 -196.5h-149 q6 186 109.5 294.5t273.5 108.5q169 0 275 -107t106 -276q0 -182 -156 -291q256 -130 256 -407q0 -204 -137.5 -345t-335.5 -141q-141 0 -255.5 66t-176.5 182q-53 101 -59 252z" />
<glyph unicode="4" d="M25 276v138l737 1099h178v-1099h139v-138h-139v-276h-149v276h-766zM199 414h592v891z" />
<glyph unicode="5" d="M53 475h148q20 -163 121 -263.5t245 -100.5q154 0 258.5 113.5t104.5 279.5t-104 277.5t-259 111.5q-177 0 -313 -170l-117 45l135 745h682v-137h-561l-74 -418q130 72 261 72q212 0 356.5 -151.5t144.5 -374.5q0 -147 -67 -269t-184 -192t-257 -70q-152 0 -277.5 80.5 t-191.5 220.5q-33 72 -51 201z" />
<glyph unicode="6" d="M51 500q0 114 35.5 203.5t144.5 252.5l375 557h174l-356 -526q89 43 176 43q133 0 244 -69t175 -188.5t64 -262.5q0 -233 -144.5 -385t-365.5 -152q-224 0 -373 150.5t-149 376.5zM203 504q0 -169 105 -281t263 -112t259.5 110t101.5 281q0 173 -102 282t-265 109 q-154 0 -258 -111.5t-104 -277.5z" />
<glyph unicode="7" d="M131 1376v137h873v-137l-619 -1376h-160l623 1376h-717z" />
<glyph unicode="8" d="M86 440q0 137 66 241.5t190 164.5q-66 39 -102 80q-74 93 -74 223q0 167 115.5 279t287.5 112q175 0 287.5 -109.5t112.5 -281.5q0 -112 -44.5 -186t-136.5 -117q126 -56 193.5 -158.5t67.5 -241.5q0 -207 -134.5 -340t-341.5 -133q-209 0 -348 133.5t-139 333.5z M238 436q0 -141 93.5 -233t239.5 -92q143 0 234.5 92.5t91.5 238.5q0 145 -92.5 235.5t-241.5 90.5q-143 0 -234 -93t-91 -239zM317 1159q0 -107 73.5 -178.5t182.5 -71.5q104 0 174 71t70 177q0 110 -70 178t-184 68q-107 0 -176.5 -69t-69.5 -175z" />
<glyph unicode="9" d="M51 1004q0 233 144.5 384.5t365.5 151.5q224 0 373 -150t149 -376q0 -114 -35.5 -204t-144.5 -253l-375 -557h-174l357 526q-89 -43 -176 -43q-133 0 -244.5 69t-175.5 189t-64 263zM203 1010q0 -170 102 -279.5t260 -109.5q157 0 262 111t105 278q0 170 -106 281.5 t-269 111.5q-154 0 -254 -111.5t-100 -281.5z" />
<glyph unicode=":" horiz-adv-x="567" d="M207 0v258h151v-258h-151zM207 780v258h151v-258h-151z" />
<glyph unicode=";" horiz-adv-x="567" d="M84 -137l180 395h152l-180 -395h-152zM256 780v258h152v-258h-152z" />
<glyph unicode="&#x3c;" horiz-adv-x="1241" d="M100 549v133l1043 475v-160l-821 -383l821 -378v-160z" />
<glyph unicode="=" horiz-adv-x="1241" d="M104 336v151h1033v-151h-1033zM104 741v152h1033v-152h-1033z" />
<glyph unicode="&#x3e;" horiz-adv-x="1241" d="M98 76v160l824 382l-824 379v160l1043 -473v-133z" />
<glyph unicode="?" horiz-adv-x="1210" d="M133 1040q3 103 21 169.5t59 129.5q66 97 169 149t230 52q201 0 332 -125.5t131 -318.5q0 -100 -41.5 -178t-142.5 -170q-114 -100 -161 -178.5t-48 -174.5h-143q2 126 49 219t164 199q103 97 137.5 154.5t34.5 132.5q0 132 -88.5 217.5t-223.5 85.5q-96 0 -173 -44 t-117 -122q-35 -63 -46 -197h-143zM535 0v258h151v-258h-151z" />
<glyph unicode="@" horiz-adv-x="1775" d="M145 752q0 215 104.5 396.5t284 286.5t392.5 105q135 0 261.5 -45.5t223.5 -128.5q221 -187 221 -479q0 -139 -54 -263t-155 -218q-130 -121 -268 -121q-72 0 -113.5 26.5t-66.5 89.5q-57 -57 -114 -81.5t-130 -24.5q-124 0 -203 84.5t-79 218.5q0 153 71 296.5 t187.5 231.5t240.5 88q97 0 164 -45q24 -14 39 -35t33 -61l35 103h124l-190 -570q-31 -96 -36 -115t-5 -42q0 -26 19 -42t49 -16q40 0 90 26.5t94 71.5q80 80 123 184t43 216q0 153 -78.5 278.5t-217 197t-308.5 71.5q-137 0 -261.5 -54t-215 -145.5t-144 -218t-53.5 -264.5 q0 -139 53 -264.5t143 -216t215.5 -144t264.5 -53.5q281 0 479 207l82 -68q-97 -113 -247.5 -177.5t-317.5 -64.5q-161 0 -305.5 61t-248 165t-164.5 248.5t-61 304.5zM596 602q0 -85 45 -136.5t119 -51.5q72 0 128.5 46t112.5 148q45 84 75 180.5t30 157.5q0 72 -43 115 t-115 43q-85 0 -167 -73t-133.5 -190.5t-51.5 -238.5z" />
<glyph unicode="A" horiz-adv-x="1515" d="M23 0l649 1513h170l651 -1513h-166l-219 510h-705l-221 -510h-159zM461 647h588l-291 694z" />
<glyph unicode="B" horiz-adv-x="1175" d="M156 0v1513h354q137 0 227.5 -21t155.5 -67q64 -47 99.5 -127t35.5 -178q0 -113 -40.5 -188.5t-127.5 -124.5q132 -56 193 -145t61 -228q0 -117 -45 -210.5t-125 -143.5q-72 -43 -167.5 -61.5t-246.5 -18.5h-374zM307 137h207q225 0 328 56q54 28 86.5 91.5t32.5 141.5 q0 101 -46.5 172.5t-128.5 97.5q-99 29 -299 29h-180v-588zM307 862h185q102 0 160.5 8.5t105.5 30.5q57 26 86.5 82t29.5 135q0 67 -24 123t-64 82q-42 29 -110.5 41t-186.5 12h-182v-514z" />
<glyph unicode="C" horiz-adv-x="1665" d="M90 752q0 223 101.5 403.5t281 282.5t401.5 102q235 0 422 -112.5t275 -307.5h-170q-44 71 -82 111t-92 74q-152 96 -346 96q-134 0 -252 -49.5t-202.5 -135t-133.5 -204.5t-49 -254q0 -131 50.5 -250.5t136.5 -206t204 -137.5t248 -51q106 0 205.5 34t177.5 97 q73 61 143 153h168q-229 -424 -692 -424q-167 0 -315 60t-253 163.5t-166 248t-61 307.5z" />
<glyph unicode="D" horiz-adv-x="1523" d="M156 0v1513h356q213 0 348.5 -29.5t245.5 -99.5q161 -101 244.5 -262t83.5 -370q0 -217 -93.5 -383.5t-271.5 -264.5q-189 -104 -506 -104h-407zM307 137h211q207 0 336 34t221 112q99 85 152 208t53 267q0 173 -76 312t-213 216q-83 47 -195 68.5t-278 21.5h-211v-1239z " />
<glyph unicode="E" horiz-adv-x="1097" d="M156 0v1513h827v-137h-676v-542h654v-138h-654v-559h676v-137h-827z" />
<glyph unicode="F" horiz-adv-x="993" d="M156 0v1513h768v-137h-617v-547h594v-137h-594v-692h-151z" />
<glyph unicode="G" horiz-adv-x="1785" d="M90 760q0 162 62.5 306.5t169.5 248.5t256 164.5t315 60.5q248 0 445 -118.5t272 -311.5h-170q-78 138 -219 214.5t-316 76.5q-185 0 -336.5 -84.5t-238 -232.5t-86.5 -328q0 -133 52 -252t140 -205t211 -136t260 -50q279 0 461 188q119 125 152 260h-846v137h1028 q-15 -270 -211 -481q-221 -244 -578 -244q-172 0 -324.5 61t-262 165.5t-173 250.5t-63.5 310z" />
<glyph unicode="H" horiz-adv-x="1398" d="M156 0v1513h151v-665h785v665h151v-1513h-151v711h-785v-711h-151z" />
<glyph unicode="I" horiz-adv-x="462" d="M156 0v1513h151v-1513h-151z" />
<glyph unicode="J" horiz-adv-x="987" d="M23 358h149q7 -115 76 -181t182 -66q123 0 186.5 91t63.5 271v1040h151v-1040q0 -245 -103.5 -373.5t-299.5 -128.5q-181 0 -288.5 102.5t-116.5 284.5z" />
<glyph unicode="K" horiz-adv-x="1210" d="M156 0v1513h151v-870l701 870h190l-598 -737l598 -776h-190l-504 655l-197 -241v-414h-151z" />
<glyph unicode="L" horiz-adv-x="946" d="M156 0v1513h151v-1376h627v-137h-778z" />
<glyph unicode="M" horiz-adv-x="1882" d="M156 0v1513h235l551 -1288l549 1288h235v-1513h-151v1348l-569 -1348h-132l-567 1348v-1348h-151z" />
<glyph unicode="N" horiz-adv-x="1515" d="M156 0v1513h204l848 -1255v1255h152v-1513h-152l-901 1331v-1331h-151z" />
<glyph unicode="O" horiz-adv-x="1779" d="M90 756q0 215 108 395t294.5 284.5t408.5 104.5q158 0 303.5 -63t252 -168t170 -250.5t63.5 -302.5q0 -158 -63.5 -303t-171 -250t-255.5 -167.5t-309 -62.5t-309.5 62.5t-256 168t-171.5 250t-64 302.5zM244 756q0 -173 87.5 -321.5t236.5 -235t323 -86.5 q130 0 249 51.5t206 137.5t138.5 204.5t51.5 247.5q0 132 -51.5 252t-139 206.5t-208.5 137.5t-254 51q-170 0 -317.5 -88t-234.5 -237t-87 -320z" />
<glyph unicode="P" horiz-adv-x="1212" d="M156 0v1513h417q147 0 240.5 -18t163.5 -61q86 -51 133 -149.5t47 -229.5q0 -114 -39 -204t-112 -144q-69 -51 -162 -73t-246 -22h-291v-612h-151zM307 750h281q204 0 291 51q60 32 92.5 99t32.5 157q0 111 -44 185.5t-126 100.5q-98 33 -312 33h-215v-626z" />
<glyph unicode="Q" horiz-adv-x="1783" d="M90 756q0 166 62.5 311.5t170.5 249t260.5 163.5t325.5 60q172 0 322 -59t257 -162t168.5 -248t61.5 -311q0 -175 -64.5 -320.5t-187.5 -249.5q106 -77 197 -77q17 0 31 2v-142q-106 2 -180 30.5t-152 100.5q-196 -131 -455 -131q-168 0 -319.5 61.5t-260.5 166 t-173 249.5t-64 306zM244 743q0 -67 22 -172q162 54 324 54q323 0 581 -185q107 -82 187 -149q207 201 207 469q0 134 -51 252.5t-138.5 204t-210 135t-260.5 49.5t-261 -50.5t-210.5 -138t-138.5 -209.5t-51 -260zM330 442q79 -149 237.5 -239t339.5 -90q186 0 332 92 q-163 150 -320 215t-352 65q-73 0 -124.5 -9.5t-112.5 -33.5z" />
<glyph unicode="R" horiz-adv-x="1243" d="M156 0v1513h374q296 0 435 -77q106 -62 161.5 -166t55.5 -242q0 -203 -114.5 -321.5t-332.5 -141.5l424 -565h-188l-510 686q244 0 348 29q219 65 219 315q0 104 -41.5 179t-118.5 112q-116 55 -348 55h-213v-1376h-151z" />
<glyph unicode="S" horiz-adv-x="1019" d="M45 424h162q7 -72 24.5 -118.5t51.5 -86.5q41 -50 104.5 -78t134.5 -28q130 0 214.5 85t84.5 216q0 144 -102 217q-73 50 -236 98q-132 41 -184.5 66.5t-97.5 68.5q-51 47 -79 118.5t-28 150.5q0 178 118.5 292.5t301.5 114.5q186 0 303 -113t121 -297h-158 q-8 123 -81.5 197t-188.5 74q-114 0 -188 -74.5t-74 -189.5q0 -52 19 -99t52 -77q31 -26 75.5 -45t148.5 -50q114 -34 173.5 -60t108.5 -61q71 -54 110.5 -139t39.5 -184q0 -193 -130 -321t-327 -128q-204 0 -333 123.5t-140 327.5z" />
<glyph unicode="T" horiz-adv-x="872" d="M14 1376v137h844v-137h-346v-1376h-152v1376h-346z" />
<glyph unicode="U" horiz-adv-x="1341" d="M156 569v944h151v-944q0 -206 70 -313q43 -66 122 -104.5t171 -38.5q94 0 173 38.5t122 104.5q69 106 69 313v944h152v-944q0 -145 -25 -239.5t-82 -169.5q-67 -89 -174 -138t-235 -49q-126 0 -233.5 49t-174.5 138q-57 75 -81.5 169t-24.5 240z" />
<glyph unicode="V" horiz-adv-x="1437" d="M20 1513h166l533 -1325l534 1325h164l-626 -1513h-148z" />
<glyph unicode="W" horiz-adv-x="1966" d="M20 1513h156l373 -1316l362 1316h144l362 -1316l373 1316h156l-435 -1513h-194l-336 1241l-332 -1241h-196z" />
<glyph unicode="X" horiz-adv-x="1247" d="M16 0l514 774l-485 739h178l402 -606l399 606h176l-485 -739l516 -774h-178l-428 647l-430 -647h-179z" />
<glyph unicode="Y" horiz-adv-x="1212" d="M4 1513h168l430 -847l440 847h166l-528 -1007v-506h-152v506z" />
<glyph unicode="Z" horiz-adv-x="983" d="M35 0v137l743 1239h-721v137h891v-137l-741 -1239h764v-137h-936z" />
<glyph unicode="[" horiz-adv-x="718" d="M229 336v610q0 269 160 422q57 57 115.5 91t136.5 54v-153q-151 -66 -209.5 -163t-58.5 -279v-556q0 -133 25 -218t82.5 -142.5t160.5 -103.5v-154q-171 48 -283 178q-69 78 -99 174t-30 240z" />
<glyph unicode="\" horiz-adv-x="1239" d="M172 1513h143l635 -1513h-143z" />
<glyph unicode="]" horiz-adv-x="718" d="M78 -102q151 68 209.5 164.5t58.5 277.5v557q0 195 -58 295.5t-210 167.5v153q168 -48 282 -176q69 -78 99 -174t30 -241v-609q0 -139 -38 -241t-121 -183q-56 -56 -114.5 -89.5t-137.5 -55.5v154z" />
<glyph unicode="^" horiz-adv-x="1241" d="M37 369l498 1144h174l495 -1144h-166l-415 983l-420 -983h-166z" />
<glyph unicode="_" horiz-adv-x="1024" d="M0 -137h1024v-119h-1024v119z" />
<glyph unicode="`" horiz-adv-x="774" d="M152 1470l65 119l406 -225l-68 -115z" />
<glyph unicode="a" horiz-adv-x="1398" d="M86 557q0 166 77 301t212 212t301 77q147 0 252.5 -53.5t189.5 -171.5v198h152v-1120h-152v197q-89 -120 -188.5 -172t-241.5 -52q-171 0 -308.5 75.5t-215.5 209t-78 299.5zM240 563q0 -189 130 -319.5t316 -130.5q183 0 307.5 129.5t124.5 320.5t-127 318t-317 127 q-180 0 -307 -130t-127 -315z" />
<glyph unicode="b" horiz-adv-x="1396" d="M129 0v1513h152v-585q72 106 185.5 162.5t254.5 56.5q122 0 231.5 -45.5t188 -123.5t124.5 -186.5t46 -230.5q0 -166 -77 -300.5t-212.5 -211t-302.5 -76.5q-138 0 -252.5 58t-185.5 162v-193h-152zM270 559q0 -186 129.5 -316t315.5 -130q189 0 315.5 128.5t126.5 321.5 t-126 319t-320 126q-186 0 -313.5 -130t-127.5 -319z" />
<glyph unicode="c" horiz-adv-x="1325" d="M86 563q0 161 79.5 295t217.5 211.5t303 77.5q190 0 339.5 -99t217.5 -268h-170q-65 110 -165 169t-224 59q-187 0 -315.5 -130t-128.5 -319q0 -187 130.5 -316.5t319.5 -129.5q120 0 207.5 50t175.5 167h172q-48 -91 -88 -142.5t-96 -93.5q-154 -121 -365 -121 q-170 0 -310 77.5t-220 213t-80 299.5z" />
<glyph unicode="d" horiz-adv-x="1402" d="M86 557q0 166 77.5 301t214 212t304.5 77q269 0 440 -205v571h152v-1513h-152v203q-87 -122 -186.5 -176t-239.5 -54q-171 0 -310.5 76t-219.5 210t-80 298zM240 561q0 -189 130.5 -318.5t321.5 -129.5q180 0 308 132t128 318t-132 315.5t-324 129.5q-180 0 -306 -130.5 t-126 -316.5z" />
<glyph unicode="e" horiz-adv-x="1331" d="M86 565q0 160 77 294t210 211t293 77q166 0 305.5 -82t212.5 -223q37 -71 52 -145.5t15 -186.5h-1013q9 -166 136 -281.5t300 -115.5q128 0 236 70.5t155 185.5h158q-62 -177 -212 -286.5t-333 -109.5q-122 0 -232 46t-189 125t-125 189t-46 232zM242 647h858 q-38 167 -154.5 264t-279.5 97q-159 0 -276 -99.5t-148 -261.5z" />
<glyph unicode="f" horiz-adv-x="643" d="M33 983v137h174q0 199 106.5 296t323.5 97v-137q-156 0 -217.5 -57t-61.5 -199h279v-137h-279v-983h-151v983h-174z" />
<glyph unicode="g" horiz-adv-x="1378" d="M86 555q0 168 74 303.5t204.5 212t292.5 76.5q143 0 250 -54t191 -171v198h151v-919q0 -165 -23.5 -265t-80.5 -176q-72 -96 -190 -148t-265 -52q-212 0 -356.5 104t-206.5 301h147q37 -66 60.5 -99t54.5 -61q118 -106 297 -106q131 0 227 53t140 150q45 95 45 250v75 q-66 -129 -171 -191.5t-257 -62.5q-122 0 -230.5 45t-186 122.5t-122.5 185.5t-45 229zM240 567q0 -195 122.5 -324.5t307.5 -129.5q183 0 305.5 131.5t122.5 326.5q0 189 -126 313t-317 124q-177 0 -296 -126.5t-119 -314.5z" />
<glyph unicode="h" horiz-adv-x="1249" d="M129 0v1513h152v-538q57 83 148.5 127.5t205.5 44.5q123 0 224.5 -45t164.5 -127q96 -131 96 -373v-602h-151v602q0 193 -82 291q-44 54 -115 84.5t-149 30.5q-88 0 -164.5 -39t-120.5 -107q-57 -85 -57 -248v-614h-152z" />
<glyph unicode="i" horiz-adv-x="409" d="M129 0v1120h152v-1120h-152zM129 1255v258h152v-258h-152z" />
<glyph unicode="j" horiz-adv-x="415" d="M-92 -248q127 7 177 79t50 247v1042h152v-1042q0 -168 -33 -254t-121 -148q-93 -63 -225 -69v145zM135 1255v258h152v-258h-152z" />
<glyph unicode="k" horiz-adv-x="1028" d="M129 0v1513h152v-1073l522 680h186l-436 -563l465 -557h-189l-372 449l-176 -218v-231h-152z" />
<glyph unicode="l" horiz-adv-x="409" d="M129 0v1513h152v-1513h-152z" />
<glyph unicode="m" horiz-adv-x="1921" d="M129 0v1120h152v-129q66 85 137.5 120.5t177.5 35.5q128 0 214.5 -50.5t152.5 -164.5q70 112 163.5 163.5t223.5 51.5q114 0 206.5 -43t151.5 -123q84 -114 84 -315v-666h-152v649q0 173 -67 258q-37 47 -98 74t-132 27q-81 0 -150.5 -36.5t-109.5 -99.5 q-47 -75 -47 -223v-649h-151v653q0 173 -76 258q-87 97 -227 97q-141 0 -221 -94t-80 -261v-653h-152z" />
<glyph unicode="n" horiz-adv-x="1249" d="M129 0v1120h152v-145q138 172 360 172q119 0 217 -44.5t164 -129.5q54 -72 76 -158t22 -227v-588h-151v588q0 113 -18.5 182.5t-61.5 122.5q-95 115 -266 115q-92 0 -168.5 -38t-120.5 -106q-29 -46 -41 -101.5t-12 -146.5v-616h-152z" />
<glyph unicode="o" horiz-adv-x="1341" d="M86 559q0 255 168 421.5t426 166.5q163 0 294.5 -76.5t206 -211.5t74.5 -302q0 -252 -162 -418t-409 -166q-169 0 -306 76t-214.5 210t-77.5 300zM240 557q0 -192 125 -318t315 -126q185 0 303.5 124.5t118.5 317.5q0 198 -122 325.5t-312 127.5q-184 0 -306 -128.5 t-122 -322.5z" />
<glyph unicode="p" horiz-adv-x="1396" d="M129 -393v1513h152v-192q70 107 182.5 163t257.5 56q165 0 300 -77t212.5 -211.5t77.5 -299.5q0 -163 -78 -297.5t-214.5 -211.5t-301.5 -77q-139 0 -250.5 56.5t-185.5 163.5v-586h-152zM270 559q0 -189 128 -317.5t317 -128.5t315.5 126.5t126.5 315.5 q0 198 -126.5 325.5t-321.5 127.5q-185 0 -312 -130t-127 -319z" />
<glyph unicode="q" horiz-adv-x="1396" d="M86 559q0 165 77.5 299.5t212.5 211.5t300 77q145 0 257.5 -56t182.5 -163v192h152v-1513h-152v586q-74 -107 -185.5 -163.5t-250.5 -56.5q-165 0 -301.5 77t-214.5 211.5t-78 297.5zM240 557q0 -190 126.5 -317t315.5 -127t316.5 128.5t127.5 317.5q0 192 -128 320.5 t-320 128.5q-187 0 -312.5 -129.5t-125.5 -321.5z" />
<glyph unicode="r" horiz-adv-x="616" d="M129 0v1120h152v-159q44 92 119.5 136t197.5 50v-150q-317 -30 -317 -344v-653h-152z" />
<glyph unicode="s" horiz-adv-x="794" d="M37 330h149q6 -104 61 -160.5t150 -56.5q83 0 136 54.5t53 139.5q0 77 -42.5 119t-174.5 96q-121 51 -146.5 64t-60.5 45q-84 78 -84 200q0 137 89.5 226.5t227.5 89.5q135 0 223.5 -84t92.5 -219h-154q-6 80 -48.5 122t-115.5 42q-67 0 -114.5 -47t-47.5 -115 q0 -96 105 -150q121 -51 209 -88q194 -81 194 -286q0 -154 -95 -251.5t-247 -97.5q-163 0 -260.5 97t-99.5 260z" />
<glyph unicode="t" horiz-adv-x="694" d="M25 983v137h241v393h152v-393h252v-137h-252v-983h-152v983h-241z" />
<glyph unicode="u" horiz-adv-x="1245" d="M129 516v604h152v-604q0 -184 57 -270q40 -63 112.5 -98t163.5 -35q89 0 162.5 36t120.5 103q68 101 68 293v575h151v-1120h-151v174q-57 -104 -144 -152.5t-217 -48.5t-230.5 48.5t-162.5 140.5q-82 118 -82 354z" />
<glyph unicode="v" d="M16 1120h154l393 -942l402 942h153l-471 -1120h-160z" />
<glyph unicode="w" horiz-adv-x="1701" d="M14 1120h152l356 -938l264 801h125l265 -801l364 938h148l-435 -1120h-161l-244 743l-242 -743h-164z" />
<glyph unicode="x" horiz-adv-x="983" d="M16 0l390 571l-390 549h172l304 -432l301 432h174l-392 -549l392 -571h-174l-301 449l-304 -449h-172z" />
<glyph unicode="y" horiz-adv-x="1097" d="M18 1120h166l355 -893l379 893h161l-647 -1513h-162l183 430z" />
<glyph unicode="z" horiz-adv-x="870" d="M20 0v137l619 846h-598v137h770v-129l-612 -854h651v-137h-830z" />
<glyph unicode="{" horiz-adv-x="718" d="M119 557v141q100 17 131 52.5t31 130.5v348q0 180 94 241q36 24 77.5 32t145.5 11v-137q-93 -9 -113 -20q-47 -24 -47 -125v-348q0 -106 -31 -158.5t-114 -83.5q-27 -9 -37 -14l37 -13q83 -32 114 -83.5t31 -157.5v-348q0 -78 27.5 -107.5t109.5 -36.5l23 -2v-137 q-102 1 -144 9.5t-79 33.5q-94 61 -94 242v348q0 95 -31 129t-131 53z" />
<glyph unicode="|" horiz-adv-x="1376" d="M623 0v1513h131v-1513h-131z" />
<glyph unicode="}" horiz-adv-x="712" d="M121 -121l22 2q56 5 79.5 13t35.5 28q23 38 23 103v348q0 106 31 157.5t114 83.5l37 13l-37 14q-83 32 -114 84t-31 158v348q0 72 -31 112q-12 13 -34.5 19.5t-72.5 11.5l-22 2v137q120 -3 172 -17.5t90 -57.5q55 -61 55 -209v-348q0 -96 30 -131t126 -52v-141 q-97 -17 -126.5 -52t-29.5 -130v-348q0 -167 -73 -228q-39 -33 -87 -44.5t-157 -12.5v137z" />
<glyph unicode="~" horiz-adv-x="1241" d="M104 526q74 133 140.5 189.5t152.5 56.5q70 0 158 -39l133 -55q114 -47 164 -47t96.5 39.5t98.5 128.5l90 -97q-52 -104 -130.5 -166.5t-156.5 -62.5q-69 0 -191 53l-112 45q-66 28 -92.5 35.5t-57.5 7.5q-80 0 -135 -71q-26 -35 -72 -113z" />
<glyph unicode="&#xa2;" d="M92 782q0 192 121.5 323.5t316.5 151.5v191h136v-191q132 -19 232 -101t144 -208h-170q-96 172 -292 172q-145 0 -240.5 -95.5t-95.5 -240.5q0 -142 97 -241t237 -99q84 0 150.5 35t135.5 115h166q-41 -112 -141 -190t-223 -95v-182h-136v182q-189 15 -313.5 149.5 t-124.5 323.5z" />
<glyph unicode="&#xa3;" d="M37 711v137h153q-26 62 -35.5 105t-9.5 96q0 215 135.5 353t346.5 138q206 0 346 -119.5t162 -312.5h-142q-31 139 -127 217t-237 78q-148 0 -240 -97.5t-92 -254.5q0 -59 11 -99t46 -104h582v-137h-440q147 -159 147 -334q0 -109 -59 -240h116q186 0 269 80 q42 42 67 105t25 127q0 41 -12 100h147q16 -63 16 -113q0 -105 -44 -198t-121 -150q-122 -88 -342 -88h-584v137h285q86 95 86 238q0 97 -39.5 164.5t-157.5 171.5h-258z" />
<glyph unicode="&#xa5;" d="M0 1513h156l452 -843l443 843h155l-299 -565h211v-137h-284l-99 -188h369v-138h-422v-485h-150v485h-430v138h375l-100 188h-289v137h215z" />
<glyph unicode="&#xa8;" horiz-adv-x="755" d="M152 1276v258h151v-258h-151zM453 1276v258h151v-258h-151z" />
<glyph unicode="&#xa9;" horiz-adv-x="1529" d="M-18 756q0 162 62 307t167 249.5t252 166t311 61.5q155 0 298 -62.5t246.5 -167.5t165.5 -250.5t62 -303.5q0 -159 -62 -304t-166.5 -250t-249.5 -167t-304 -62t-304 62t-249.5 167t-166.5 250t-62 304zM96 756q0 -183 89.5 -339t243.5 -246.5t335 -90.5t335 90.5 t243.5 246.5t89.5 339q0 187 -89.5 342.5t-244.5 245.5t-342 90q-177 0 -329 -91.5t-241.5 -248t-89.5 -338.5zM334 762q0 190 131 322.5t319 132.5q129 0 233 -62t169 -178h-152q-104 125 -248 125q-135 0 -231 -99.5t-96 -240.5q0 -140 96.5 -242t228.5 -102 q143 0 242 117h154q-62 -109 -167 -170.5t-231 -61.5q-184 0 -316 135t-132 324z" />
<glyph unicode="&#xab;" horiz-adv-x="870" d="M82 614l231 408l121 -66l-192 -342l192 -344l-121 -67zM432 614l236 408l120 -66l-192 -342l192 -344l-120 -67z" />
<glyph unicode="&#xad;" horiz-adv-x="679" d="M63 477v129h555v-129h-555z" />
<glyph unicode="&#xae;" horiz-adv-x="1529" d="M-18 756q0 162 62 307t167 249.5t252 166t311 61.5q155 0 298 -62.5t246.5 -167.5t165.5 -250.5t62 -303.5q0 -159 -62 -304t-166.5 -250t-249.5 -167t-304 -62t-304 62t-249.5 167t-166.5 250t-62 304zM96 756q0 -183 89.5 -339t243.5 -246.5t335 -90.5t335 90.5 t243.5 246.5t89.5 339q0 187 -89.5 342.5t-244.5 245.5t-342 90q-177 0 -329 -91.5t-241.5 -248t-89.5 -338.5zM508 322v876h270q159 0 236 -74q80 -80 80 -206q0 -234 -256 -269l247 -327h-155l-297 413v-413h-125zM633 748h90q119 0 180.5 43.5t61.5 126.5q0 74 -53 117.5 t-142 43.5h-137v-331z" />
<glyph unicode="&#xb4;" horiz-adv-x="768" d="M152 1364l395 238l69 -119l-395 -234z" />
<glyph unicode="&#xb8;" horiz-adv-x="663" d="M152 -287l90 11q9 -34 33 -53t59 -19q40 0 65 26.5t25 67.5q0 47 -26.5 77t-67.5 30q-47 0 -88 -50l-60 35l72 162h74l-39 -96q41 16 67 16q69 0 112.5 -46t43.5 -118q0 -85 -50.5 -138.5t-129.5 -53.5q-70 0 -116.5 38.5t-63.5 110.5z" />
<glyph unicode="&#xbb;" horiz-adv-x="870" d="M82 270l192 344l-192 342l121 66l235 -408l-235 -411zM436 270l193 344l-193 342l121 66l231 -408l-231 -411z" />
<glyph unicode="&#x192;" d="M37 -299l24 131q57 -8 99 -8q99 0 156 32t93 108.5t64 223.5l164 871h-231l26 137h227l9 47q44 226 151 330q49 47 113.5 74.5t126.5 27.5q15 0 59 -6l-22 -135q-40 4 -43 4q-184 0 -242 -295l-8 -47h229l-24 -137h-230l-164 -883q-34 -181 -65.5 -257.5t-95.5 -131.5 q-115 -100 -297 -100q-67 0 -119 14z" />
<glyph unicode="&#x2c6;" horiz-adv-x="1028" d="M152 1276l297 258h135l293 -258h-183l-176 151l-180 -151h-186z" />
<glyph unicode="&#x2da;" horiz-adv-x="679" d="M152 1436q0 80 55 135t135 55q76 0 131 -55.5t55 -132.5q0 -78 -55 -133.5t-133 -55.5t-133 55t-55 132zM236 1436q0 -43 30.5 -73t73.5 -30q42 0 73 30.5t31 72.5q0 44 -31 75t-75 31q-42 0 -72 -31t-30 -75z" />
<glyph unicode="&#x2dc;" horiz-adv-x="899" d="M154 1391q75 100 190 100q28 0 51 -6.5t70 -28.5q73 -29 98 -29q56 0 117 64l68 -94q-25 -40 -80.5 -70.5t-106.5 -30.5q-40 0 -135 45q-54 21 -82 21q-29 0 -48.5 -9.5t-59.5 -43.5l-15 -13z" />
<glyph unicode="&#x400;" horiz-adv-x="1097" d="M156 0v1513h827v-137h-676v-542h654v-138h-654v-559h676v-137h-827zM266 1843l66 119l405 -225l-67 -115z" />
<glyph unicode="&#x401;" horiz-adv-x="1097" d="M156 0v1513h827v-137h-676v-542h654v-138h-654v-559h676v-137h-827zM344 1649v258h152v-258h-152zM645 1649v258h152v-258h-152z" />
<glyph unicode="&#x402;" horiz-adv-x="1372" d="M14 1376v137h885v-137h-387v-475h301q136 0 210.5 -21t145.5 -73q72 -53 112 -144.5t40 -203.5q0 -180 -58.5 -285t-188 -153t-353.5 -48v138q252 0 349 74t97 274q0 86 -34 153.5t-91 100.5q-47 28 -98 39.5t-141 11.5h-291v-764h-152v1376h-346z" />
<glyph unicode="&#x403;" horiz-adv-x="909" d="M156 0v1513h739v-137h-588v-1376h-151zM328 1737l395 238l69 -119l-395 -234z" />
<glyph unicode="&#x404;" horiz-adv-x="1665" d="M90 752q0 223 101.5 403.5t281 282.5t401.5 102q235 0 422 -112.5t275 -307.5h-170q-178 281 -520 281q-249 0 -426.5 -158.5t-206.5 -402.5h958v-138h-960q14 -163 102 -298t229.5 -213t305.5 -78q171 0 297.5 75t228.5 209h168q-229 -424 -692 -424q-167 0 -315 60 t-253 163.5t-166 248t-61 307.5z" />
<glyph unicode="&#x405;" horiz-adv-x="1019" d="M45 424h162q7 -72 24.5 -118.5t51.5 -86.5q41 -50 104.5 -78t134.5 -28q130 0 214.5 85t84.5 216q0 144 -102 217q-73 50 -236 98q-132 41 -184.5 66.5t-97.5 68.5q-51 47 -79 118.5t-28 150.5q0 178 118.5 292.5t301.5 114.5q186 0 303 -113t121 -297h-158 q-8 123 -81.5 197t-188.5 74q-114 0 -188 -74.5t-74 -189.5q0 -52 19 -99t52 -77q31 -26 75.5 -45t148.5 -50q114 -34 173.5 -60t108.5 -61q71 -54 110.5 -139t39.5 -184q0 -193 -130 -321t-327 -128q-204 0 -333 123.5t-140 327.5z" />
<glyph unicode="&#x406;" horiz-adv-x="462" d="M156 0v1513h151v-1513h-151z" />
<glyph unicode="&#x407;" horiz-adv-x="462" d="M6 1649v258h152v-258h-152zM158 0v1513h151v-1513h-151zM307 1649v258h152v-258h-152z" />
<glyph unicode="&#x408;" horiz-adv-x="987" d="M23 358h149q7 -115 76 -181t182 -66q123 0 186.5 91t63.5 271v1040h151v-1040q0 -245 -103.5 -373.5t-299.5 -128.5q-181 0 -288.5 102.5t-116.5 284.5z" />
<glyph unicode="&#x409;" horiz-adv-x="2164" d="M23 0l1046 1513h195v-643h290q154 0 246.5 -20.5t161.5 -69.5q73 -52 112.5 -140.5t39.5 -197.5q0 -126 -47 -220t-134 -144q-71 -42 -164.5 -60t-238.5 -18h-418v1319l-909 -1319h-180zM1264 137h215q206 0 311 31q81 25 125.5 96t44.5 176q0 85 -32.5 149t-92.5 95 q-88 49 -291 49h-280v-596z" />
<glyph unicode="&#x40a;" horiz-adv-x="2082" d="M156 0v1513h151v-643h723v643h152v-643h291q154 0 246 -20.5t161 -69.5q73 -52 112.5 -140.5t39.5 -197.5q0 -126 -47 -220t-134 -144q-71 -42 -164.5 -60t-238.5 -18h-418v733h-723v-733h-151zM1182 137h215q206 0 311 31q81 25 125.5 96t44.5 176q0 85 -32.5 149 t-92.5 95q-88 49 -291 49h-280v-596z" />
<glyph unicode="&#x40b;" horiz-adv-x="1443" d="M14 1376v137h885v-137h-387v-479q200 8 276 8q229 0 357 -94q72 -52 111.5 -143.5t39.5 -204.5v-463h-151v463q0 85 -34.5 153t-92.5 101q-84 51 -240 51q-130 0 -266 -8v-760h-152v1376h-346z" />
<glyph unicode="&#x40c;" horiz-adv-x="1210" d="M156 0v1513h151v-694l690 694h201l-747 -749l747 -764h-205l-686 705v-705h-151zM439 1737l395 238l69 -119l-395 -234z" />
<glyph unicode="&#x40d;" horiz-adv-x="1515" d="M156 0v1513h151v-1288l901 1288h152v-1513h-152v1288l-901 -1288h-151zM441 1843l65 119l406 -225l-68 -115z" />
<glyph unicode="&#x40e;" horiz-adv-x="1155" d="M20 1513h160l398 -925l397 925h160l-650 -1513h-159l172 401zM236 1907h153q0 -183 189 -183q188 0 188 183h154q-24 -142 -113 -209.5t-229 -67.5t-229 67.5t-113 209.5z" />
<glyph unicode="&#x40f;" horiz-adv-x="1368" d="M156 0v1513h151v-1376h754v1376h151v-1513h-444l-31 -279h-106l-31 279h-444z" />
<glyph unicode="&#x410;" horiz-adv-x="1515" d="M23 0l649 1513h170l651 -1513h-166l-219 510h-705l-221 -510h-159zM461 647h588l-291 694z" />
<glyph unicode="&#x411;" horiz-adv-x="1198" d="M156 0v1513h886v-137h-735v-491h285q150 0 239.5 -21t157.5 -71q72 -52 110 -140.5t38 -201.5q0 -128 -45.5 -224t-130.5 -147q-69 -43 -160.5 -61.5t-233.5 -18.5h-411zM307 137h209q206 0 301 33q78 26 122 99t44 180q0 87 -31.5 153t-89.5 96q-82 50 -282 50h-273 v-611z" />
<glyph unicode="&#x412;" horiz-adv-x="1175" d="M156 0v1513h354q137 0 227.5 -21t155.5 -67q64 -47 99.5 -127t35.5 -178q0 -113 -40.5 -188.5t-127.5 -124.5q132 -56 193 -145t61 -228q0 -117 -45 -210.5t-125 -143.5q-72 -43 -167.5 -61.5t-246.5 -18.5h-374zM307 137h207q225 0 328 56q54 28 86.5 91.5t32.5 141.5 q0 101 -46.5 172.5t-128.5 97.5q-99 29 -299 29h-180v-588zM307 862h185q102 0 160.5 8.5t105.5 30.5q57 26 86.5 82t29.5 135q0 67 -24 123t-64 82q-42 29 -110.5 41t-186.5 12h-182v-514z" />
<glyph unicode="&#x413;" horiz-adv-x="909" d="M156 0v1513h739v-137h-588v-1376h-151z" />
<glyph unicode="&#x414;" horiz-adv-x="1736" d="M37 137h156l589 1376h172l590 -1376h156v-416h-107l-57 279h-1335l-58 -279h-106v416zM354 137h1028l-514 1204z" />
<glyph unicode="&#x415;" horiz-adv-x="1097" d="M156 0v1513h827v-137h-676v-542h654v-138h-654v-559h676v-137h-827z" />
<glyph unicode="&#x416;" horiz-adv-x="1699" d="M12 0l613 764l-613 749h189l573 -706v706h152v-706l573 706h189l-613 -749l613 -764h-191l-571 717v-717h-152v717l-571 -717h-191z" />
<glyph unicode="&#x417;" horiz-adv-x="1060" d="M37 436h162q0 -132 91.5 -225.5t223.5 -93.5t223.5 93.5t91.5 225.5q0 84 -32.5 146.5t-89.5 98.5t-127.5 53.5t-153.5 17.5v137q161 0 249.5 64.5t88.5 185.5q0 106 -74.5 183t-179.5 77t-179.5 -77t-74.5 -183h-158q0 163 121 282t291 119t291 -117t121 -280 q0 -67 -23.5 -124t-62 -94t-80 -60.5t-84.5 -33.5q53 -11 107.5 -43t102.5 -81.5t78.5 -122t30.5 -152.5q0 -189 -140.5 -324t-336.5 -135t-336.5 137t-140.5 326z" />
<glyph unicode="&#x418;" horiz-adv-x="1515" d="M156 0v1513h151v-1288l901 1288h152v-1513h-152v1288l-901 -1288h-151z" />
<glyph unicode="&#x419;" horiz-adv-x="1515" d="M156 0v1513h151v-1288l901 1288h152v-1513h-152v1288l-901 -1288h-151zM416 1907h153q0 -183 189 -183q188 0 188 183h154q-24 -142 -113 -209.5t-229 -67.5t-229 67.5t-113 209.5z" />
<glyph unicode="&#x41a;" horiz-adv-x="1210" d="M156 0v1513h151v-694l690 694h201l-747 -749l747 -764h-205l-686 705v-705h-151z" />
<glyph unicode="&#x41b;" horiz-adv-x="1515" d="M23 0l651 1513h168l651 -1513h-164l-571 1341l-572 -1341h-163z" />
<glyph unicode="&#x41c;" horiz-adv-x="1882" d="M156 0v1513h235l551 -1288l549 1288h235v-1513h-151v1348l-569 -1348h-132l-567 1348v-1348h-151z" />
<glyph unicode="&#x41d;" horiz-adv-x="1398" d="M156 0v1513h151v-665h785v665h151v-1513h-151v711h-785v-711h-151z" />
<glyph unicode="&#x41e;" horiz-adv-x="1779" d="M90 756q0 215 108 395t294.5 284.5t408.5 104.5q158 0 303.5 -63t252 -168t170 -250.5t63.5 -302.5q0 -158 -63.5 -303t-171 -250t-255.5 -167.5t-309 -62.5t-309.5 62.5t-256 168t-171.5 250t-64 302.5zM244 756q0 -173 87.5 -321.5t236.5 -235t323 -86.5 q130 0 249 51.5t206 137.5t138.5 204.5t51.5 247.5q0 132 -51.5 252t-139 206.5t-208.5 137.5t-254 51q-170 0 -317.5 -88t-234.5 -237t-87 -320z" />
<glyph unicode="&#x41f;" horiz-adv-x="1370" d="M156 0v1513h1058v-1513h-151v1376h-756v-1376h-151z" />
<glyph unicode="&#x420;" horiz-adv-x="1212" d="M156 0v1513h417q147 0 240.5 -18t163.5 -61q86 -51 133 -149.5t47 -229.5q0 -114 -39 -204t-112 -144q-69 -51 -162 -73t-246 -22h-291v-612h-151zM307 750h281q204 0 291 51q60 32 92.5 99t32.5 157q0 111 -44 185.5t-126 100.5q-98 33 -312 33h-215v-626z" />
<glyph unicode="&#x421;" horiz-adv-x="1665" d="M90 752q0 223 101.5 403.5t281 282.5t401.5 102q235 0 422 -112.5t275 -307.5h-170q-44 71 -82 111t-92 74q-152 96 -346 96q-134 0 -252 -49.5t-202.5 -135t-133.5 -204.5t-49 -254q0 -131 50.5 -250.5t136.5 -206t204 -137.5t248 -51q106 0 205.5 34t177.5 97 q73 61 143 153h168q-229 -424 -692 -424q-167 0 -315 60t-253 163.5t-166 248t-61 307.5z" />
<glyph unicode="&#x422;" horiz-adv-x="872" d="M14 1376v137h844v-137h-346v-1376h-152v1376h-346z" />
<glyph unicode="&#x423;" horiz-adv-x="1155" d="M20 1513h160l398 -925l397 925h160l-650 -1513h-159l172 401z" />
<glyph unicode="&#x424;" horiz-adv-x="1662" d="M74 770q0 167 83.5 311.5t240.5 239.5t358 111v81h151v-81q201 -16 358 -111t240.5 -239.5t83.5 -311.5q0 -268 -186.5 -452t-495.5 -207v-111h-151v111q-309 23 -495.5 207t-186.5 452zM227 770q0 -208 143 -352.5t386 -167.5v1042q-159 -15 -280.5 -90.5t-185 -188 t-63.5 -243.5zM907 250q243 23 386 167.5t143 352.5q0 131 -63.5 243.5t-185 188t-280.5 90.5v-1042z" />
<glyph unicode="&#x425;" horiz-adv-x="1247" d="M16 0l514 774l-485 739h178l402 -606l399 606h176l-485 -739l516 -774h-178l-428 647l-430 -647h-179z" />
<glyph unicode="&#x426;" horiz-adv-x="1445" d="M156 0v1513h151v-1376h735v1376h152v-1376h199v-416h-107l-57 279h-1073z" />
<glyph unicode="&#x427;" horiz-adv-x="1218" d="M88 1044v469h154v-469q0 -197 110 -258q94 -55 283 -55q96 0 276 23v759h152v-1513h-152v616q-172 -22 -286 -22q-120 0 -227 24.5t-173 73.5q-137 101 -137 352z" />
<glyph unicode="&#x428;" horiz-adv-x="1835" d="M156 0v1513h151v-1376h535v1376h151v-1376h535v1376h151v-1513h-1523z" />
<glyph unicode="&#x429;" horiz-adv-x="1931" d="M156 0v1513h151v-1376h535v1376h151v-1376h535v1376h151v-1376h199v-416h-106l-58 279h-1558z" />
<glyph unicode="&#x42a;" horiz-adv-x="1550" d="M14 1376v137h635v-643h291q154 0 246.5 -20.5t161.5 -69.5q73 -52 112 -140t39 -198q0 -126 -47 -220t-133 -144q-71 -41 -165 -59.5t-239 -18.5h-417v1376h-484zM649 137h215q207 0 312 31q81 25 125.5 96t44.5 176q0 85 -32.5 149t-92.5 95q-88 49 -291 49h-281v-596z " />
<glyph unicode="&#x42b;" horiz-adv-x="1660" d="M156 0v1513h151v-643h291q154 0 246.5 -20.5t161.5 -69.5q73 -52 112 -140t39 -198q0 -126 -47 -220t-133 -144q-71 -41 -165 -59.5t-239 -18.5h-417zM307 137h215q207 0 312 31q81 25 125.5 96t44.5 176q0 85 -32.5 149t-92.5 95q-88 49 -291 49h-281v-596zM1354 0v1513 h151v-1513h-151z" />
<glyph unicode="&#x42c;" horiz-adv-x="1208" d="M156 0v1513h151v-643h291q154 0 246.5 -20.5t161.5 -69.5q73 -52 112 -140t39 -198q0 -126 -47 -220t-133 -144q-71 -41 -165 -59.5t-239 -18.5h-417zM307 137h215q207 0 312 31q81 25 125.5 96t44.5 176q0 85 -32.5 149t-92.5 95q-88 49 -291 49h-281v-596z" />
<glyph unicode="&#x42d;" horiz-adv-x="1665" d="M88 397h168q102 -134 228.5 -209t297.5 -75q164 0 305.5 78t229.5 213t102 298h-960v138h958q-29 244 -206.5 402.5t-426.5 158.5q-342 0 -520 -281h-170q88 195 275 307.5t422 112.5q222 0 401.5 -102t281 -282.5t101.5 -403.5q0 -163 -61 -307.5t-166 -248t-253 -163.5 t-315 -60q-463 0 -692 424z" />
<glyph unicode="&#x42e;" horiz-adv-x="2238" d="M156 0v1513h151v-665h213q16 146 86.5 276.5t177.5 224t250.5 148.5t298.5 55q167 0 318.5 -63t260 -170t172.5 -254t64 -309q0 -160 -64 -307t-172.5 -254t-260 -170.5t-318.5 -63.5q-163 0 -309.5 57.5t-253.5 157t-174 238.5t-78 297h-211v-711h-151zM670 762 q0 -180 87 -332.5t240 -242t336 -89.5q136 0 259 52.5t211 140.5t140 209t52 252q0 133 -52 255t-140 211.5t-211 143t-259 53.5q-180 0 -333 -89.5t-241.5 -239.5t-88.5 -324z" />
<glyph unicode="&#x42f;" horiz-adv-x="1243" d="M51 0l428 643q-135 17 -225 82q-72 52 -110 140.5t-38 199.5q0 128 46 225t131 146q69 41 160 59t233 18h411v-1513h-151v633h-287l-420 -633h-178zM260 1067q0 -87 31.5 -152t89.5 -96q85 -49 283 -49h272v606h-209q-215 0 -301 -30q-78 -25 -122 -98.5t-44 -180.5z" />
<glyph unicode="&#x430;" horiz-adv-x="1398" d="M86 557q0 166 77 301t212 212t301 77q147 0 252.5 -53.5t189.5 -171.5v198h152v-1120h-152v197q-89 -120 -188.5 -172t-241.5 -52q-171 0 -308.5 75.5t-215.5 209t-78 299.5zM240 563q0 -189 130 -319.5t316 -130.5q183 0 307.5 129.5t124.5 320.5t-127 318t-317 127 q-180 0 -307 -130t-127 -315z" />
<glyph unicode="&#x431;" horiz-adv-x="1368" d="M100 850q0 342 153.5 518t473.5 205l477 41v-139l-465 -43q-256 -25 -388.5 -172.5t-137.5 -403.5l6 -2q24 60 62.5 110.5t95.5 92.5t137.5 66t177.5 24q122 0 231.5 -45.5t188 -123.5t124.5 -186.5t46 -230.5q0 -166 -77 -300.5t-212.5 -211t-302.5 -76.5 q-189 0 -332 99q-57 39 -98 82.5t-69.5 97.5t-46.5 110.5t-27.5 136t-13 159t-3.5 192.5zM252 565q0 -194 122 -323t312 -129q189 0 315.5 129.5t126.5 322.5q0 189 -125.5 316t-314.5 127q-186 0 -311 -128t-125 -315z" />
<glyph unicode="&#x432;" horiz-adv-x="1095" d="M129 0v1120h449q180 0 283.5 -77.5t103.5 -217.5q0 -81 -48.5 -140t-103.5 -83q209 -76 209 -268q0 -144 -115.5 -239t-298.5 -95h-479zM281 137h288q88 0 153 19t105.5 64t40.5 114q0 186 -299 186h-288v-383zM281 657h272q123 0 194.5 42t71.5 126q0 158 -266 158h-272 v-326z" />
<glyph unicode="&#x433;" horiz-adv-x="727" d="M129 0v1120h573v-137h-421v-983h-152z" />
<glyph unicode="&#x434;" horiz-adv-x="1372" d="M35 137h145l420 983h172l420 -983h145v-395h-104l-55 258h-983l-56 -258h-104v395zM340 137h692l-346 811z" />
<glyph unicode="&#x435;" horiz-adv-x="1331" d="M86 565q0 160 77 294t210 211t293 77q166 0 305.5 -82t212.5 -223q37 -71 52 -145.5t15 -186.5h-1013q9 -166 136 -281.5t300 -115.5q128 0 236 70.5t155 185.5h158q-62 -177 -212 -286.5t-333 -109.5q-122 0 -232 46t-189 125t-125 189t-46 232zM242 647h858 q-38 167 -154.5 264t-279.5 97q-159 0 -276 -99.5t-148 -261.5z" />
<glyph unicode="&#x436;" horiz-adv-x="1437" d="M10 0l479 575l-479 545h191l442 -508v508h152v-508l442 508h190l-479 -545l479 -575h-190l-442 537v-537h-152v537l-442 -537h-191z" />
<glyph unicode="&#x437;" horiz-adv-x="983" d="M74 324h153q6 -90 79 -150.5t183 -60.5q112 0 189.5 61.5t77.5 149.5q0 90 -88 147t-267 57v125q148 0 221.5 49.5t73.5 135.5q0 69 -61 118.5t-148 49.5q-85 0 -141.5 -48.5t-62.5 -119.5h-154q6 131 108 220t252 89q151 0 256 -89.5t105 -219.5q0 -81 -49.5 -148.5 t-130.5 -91.5q105 -29 172 -98t67 -176q0 -146 -121 -248.5t-296 -102.5q-173 0 -292.5 101.5t-125.5 249.5z" />
<glyph unicode="&#x438;" horiz-adv-x="1243" d="M129 0v1120h152v-905l682 905h151v-1120h-151v905l-682 -905h-152z" />
<glyph unicode="&#x439;" horiz-adv-x="1243" d="M129 0v1120h152v-905l682 905h151v-1120h-151v905l-682 -905h-152zM310 1528h151q0 -172 160 -172t160 172h151q-23 -134 -103.5 -200t-207.5 -66t-207.5 66t-103.5 200z" />
<glyph unicode="&#x43a;" horiz-adv-x="999" d="M129 0v1120h152v-499l512 499h196l-559 -542l559 -578h-198l-510 528v-528h-152z" />
<glyph unicode="&#x43b;" horiz-adv-x="1153" d="M10 0l482 1120h170l481 -1120h-160l-405 948l-408 -948h-160z" />
<glyph unicode="&#x43c;" horiz-adv-x="1511" d="M129 0v1120h236l391 -909l391 909h235v-1120h-151v954l-410 -954h-131l-409 954v-954h-152z" />
<glyph unicode="&#x43d;" horiz-adv-x="1232" d="M129 0v1120h152v-481h671v481h152v-1120h-152v502h-671v-502h-152z" />
<glyph unicode="&#x43e;" horiz-adv-x="1341" d="M86 559q0 255 168 421.5t426 166.5q163 0 294.5 -76.5t206 -211.5t74.5 -302q0 -252 -162 -418t-409 -166q-169 0 -306 76t-214.5 210t-77.5 300zM240 557q0 -192 125 -318t315 -126q185 0 303.5 124.5t118.5 317.5q0 198 -122 325.5t-312 127.5q-184 0 -306 -128.5 t-122 -322.5z" />
<glyph unicode="&#x43f;" horiz-adv-x="1222" d="M129 0v1120h965v-1120h-152v983h-661v-983h-152z" />
<glyph unicode="&#x440;" horiz-adv-x="1396" d="M129 -393v1513h152v-192q70 107 182.5 163t257.5 56q165 0 300 -77t212.5 -211.5t77.5 -299.5q0 -163 -78 -297.5t-214.5 -211.5t-301.5 -77q-139 0 -250.5 56.5t-185.5 163.5v-586h-152zM270 559q0 -189 128 -317.5t317 -128.5t315.5 126.5t126.5 315.5 q0 198 -126.5 325.5t-321.5 127.5q-185 0 -312 -130t-127 -319z" />
<glyph unicode="&#x441;" horiz-adv-x="1325" d="M86 563q0 161 79.5 295t217.5 211.5t303 77.5q190 0 339.5 -99t217.5 -268h-170q-65 110 -165 169t-224 59q-187 0 -315.5 -130t-128.5 -319q0 -187 130.5 -316.5t319.5 -129.5q120 0 207.5 50t175.5 167h172q-48 -91 -88 -142.5t-96 -93.5q-154 -121 -365 -121 q-170 0 -310 77.5t-220 213t-80 299.5z" />
<glyph unicode="&#x442;" horiz-adv-x="786" d="M25 983v137h737v-137h-291v-983h-152v983h-294z" />
<glyph unicode="&#x443;" horiz-adv-x="1097" d="M18 1120h166l355 -893l379 893h161l-647 -1513h-162l183 430z" />
<glyph unicode="&#x444;" horiz-adv-x="1605" d="M82 559q0 275 155.5 423t489.5 163v368h152v-368q334 -15 489.5 -163t155.5 -423q0 -274 -155 -421.5t-490 -162.5v-368h-152v368q-335 15 -490 162.5t-155 421.5zM236 559q0 -212 115.5 -321.5t375.5 -122.5v891q-259 -13 -375 -123.5t-116 -323.5zM879 115 q260 13 375.5 122.5t115.5 321.5q0 213 -116 323.5t-375 123.5v-891z" />
<glyph unicode="&#x445;" horiz-adv-x="983" d="M16 0l390 571l-390 549h172l304 -432l301 432h174l-392 -549l392 -571h-174l-301 449l-304 -449h-172z" />
<glyph unicode="&#x446;" horiz-adv-x="1273" d="M129 0v1120h152v-983h641v983h151v-983h182v-395h-104l-55 258h-967z" />
<glyph unicode="&#x447;" horiz-adv-x="1071" d="M92 780v340h152v-340q0 -67 13.5 -107t50.5 -65.5t95.5 -35t155.5 -9.5q89 0 232 19v538h151v-1120h-151v446q-170 -20 -353 -20q-55 0 -117 17.5t-100 45.5q-129 89 -129 291z" />
<glyph unicode="&#x448;" horiz-adv-x="1642" d="M129 0v1120h152v-983h464v983h152v-983h465v983h151v-1120h-1384z" />
<glyph unicode="&#x449;" horiz-adv-x="1714" d="M129 0v1120h152v-983h464v983h152v-983h465v983h151v-983h183v-395h-105l-55 258h-1407z" />
<glyph unicode="&#x44a;" horiz-adv-x="1292" d="M25 983v137h505v-448h330q174 0 279.5 -94.5t105.5 -241.5t-105.5 -241.5t-279.5 -94.5h-481v983h-354zM530 137h291q271 0 271 199t-271 199h-291v-398z" />
<glyph unicode="&#x44b;" horiz-adv-x="1390" d="M129 0v1120h152v-448h309q174 0 279.5 -94.5t105.5 -241.5t-105.5 -241.5t-279.5 -94.5h-461zM281 137h270t270 199t-270 199h-270v-398zM1110 0v1120h152v-1120h-152z" />
<glyph unicode="&#x44c;" horiz-adv-x="1042" d="M129 0v1120h152v-448h329q174 0 279.5 -94.5t105.5 -241.5t-105.5 -241.5t-279.5 -94.5h-481zM281 137h290q271 0 271 199t-271 199h-290v-398z" />
<glyph unicode="&#x44d;" horiz-adv-x="1318" d="M80 317h174q63 -95 160.5 -149.5t214.5 -54.5q172 0 298 110t148 275h-667v137h665q-26 162 -149 267.5t-289 105.5q-248 0 -381 -215h-174q73 166 218.5 260t334.5 94q165 0 303 -77.5t217.5 -211.5t79.5 -295q0 -164 -80 -299.5t-220 -213t-310 -77.5q-186 0 -323.5 92 t-219.5 252z" />
<glyph unicode="&#x44e;" horiz-adv-x="1755" d="M129 0v1120h152v-481h194q17 147 99 264.5t213 184.5t286 67q258 0 427 -169.5t169 -428.5q0 -168 -75.5 -303.5t-209 -212t-299.5 -76.5q-165 0 -299 69.5t-215 191t-96 276.5h-194v-502h-152zM627 563q0 -201 127.5 -330t326.5 -129q189 0 310.5 127t121.5 324 q0 198 -125 329.5t-315 131.5q-192 0 -319 -129t-127 -324z" />
<glyph unicode="&#x44f;" horiz-adv-x="1034" d="M18 0l324 465q-127 29 -199.5 115.5t-72.5 205.5q0 145 105.5 239.5t279.5 94.5h450v-1120h-151v453h-248l-316 -453h-172zM223 786q0 -196 271 -196h260v393h-260q-271 0 -271 -197z" />
<glyph unicode="&#x450;" horiz-adv-x="1331" d="M86 565q0 160 77 294t210 211t293 77q166 0 305.5 -82t212.5 -223q37 -71 52 -145.5t15 -186.5h-1013q9 -166 136 -281.5t300 -115.5q128 0 236 70.5t155 185.5h158q-62 -177 -212 -286.5t-333 -109.5q-122 0 -232 46t-189 125t-125 189t-46 232zM242 647h858 q-38 167 -154.5 264t-279.5 97q-159 0 -276 -99.5t-148 -261.5zM373 1470l65 119l406 -225l-68 -115z" />
<glyph unicode="&#x451;" horiz-adv-x="1331" d="M86 565q0 160 77 294t210 211t293 77q166 0 305.5 -82t212.5 -223q37 -71 52 -145.5t15 -186.5h-1013q9 -166 136 -281.5t300 -115.5q128 0 236 70.5t155 185.5h158q-62 -177 -212 -286.5t-333 -109.5q-122 0 -232 46t-189 125t-125 189t-46 232zM242 647h858 q-38 167 -154.5 264t-279.5 97q-159 0 -276 -99.5t-148 -261.5zM449 1276v258h151v-258h-151zM750 1276v258h151v-258h-151z" />
<glyph unicode="&#x452;" horiz-adv-x="1355" d="M25 1176v137h251v200h152v-200h383v-137h-383v-365q118 172 334 172q235 0 368 -172q97 -132 97 -373v-438q0 -42 -9 -86.5t-35.5 -97t-66.5 -93t-109.5 -67.5t-158.5 -27v138q59 0 103.5 18t67 43t36.5 59.5t17 60t3 52.5v438q0 193 -82 291q-94 115 -243 115 q-169 0 -265 -146q-31 -46 -44 -102.5t-13 -144.5v-451h-152v1176h-251z" />
<glyph unicode="&#x453;" horiz-adv-x="727" d="M129 0v1120h573v-137h-421v-983h-152zM220 1364l395 238l69 -119l-395 -234z" />
<glyph unicode="&#x454;" horiz-adv-x="1318" d="M86 563q0 161 79.5 295t217.5 211.5t303 77.5q189 0 334.5 -94t218.5 -260h-174q-133 215 -381 215q-166 0 -289 -105.5t-149 -267.5h665v-137h-667q22 -165 148 -275t298 -110q117 0 214.5 54.5t160.5 149.5h174q-82 -160 -219.5 -252t-323.5 -92q-170 0 -310 77.5 t-220 213t-80 299.5z" />
<glyph unicode="&#x455;" horiz-adv-x="794" d="M37 330h149q6 -104 61 -160.5t150 -56.5q83 0 136 54.5t53 139.5q0 77 -42.5 119t-174.5 96q-121 51 -146.5 64t-60.5 45q-84 78 -84 200q0 137 89.5 226.5t227.5 89.5q135 0 223.5 -84t92.5 -219h-154q-6 80 -48.5 122t-115.5 42q-67 0 -114.5 -47t-47.5 -115 q0 -96 105 -150q121 -51 209 -88q194 -81 194 -286q0 -154 -95 -251.5t-247 -97.5q-163 0 -260.5 97t-99.5 260z" />
<glyph unicode="&#x456;" horiz-adv-x="409" d="M129 0v1120h152v-1120h-152zM129 1255v258h152v-258h-152z" />
<glyph unicode="&#x457;" horiz-adv-x="409" d="M-20 1276v258h151v-258h-151zM131 0v1120h152v-1120h-152zM281 1276v258h151v-258h-151z" />
<glyph unicode="&#x458;" horiz-adv-x="415" d="M-92 -248q127 7 177 79t50 247v1042h152v-1042q0 -168 -33 -254t-121 -148q-93 -63 -225 -69v145zM135 1255v258h152v-258h-152z" />
<glyph unicode="&#x459;" horiz-adv-x="1740" d="M10 0l774 1120h195v-448h330q174 0 279.5 -94.5t105.5 -241.5t-105.5 -241.5t-279.5 -94.5h-482v926l-639 -926h-178zM979 137h291q270 0 270 199t-270 199h-291v-398z" />
<glyph unicode="&#x45a;" horiz-adv-x="1804" d="M129 0v1120h152v-448h610v448h151v-448h330q174 0 279.5 -94.5t105.5 -241.5t-105.5 -241.5t-279.5 -94.5h-481v535h-610v-535h-152zM1042 137h291q271 0 271 199t-271 199h-291v-398z" />
<glyph unicode="&#x45b;" horiz-adv-x="1355" d="M25 1176v137h251v200h152v-200h383v-137h-383v-365q118 172 334 172q235 0 368 -172q97 -132 97 -373v-438h-152v438q0 193 -82 291q-94 115 -243 115q-169 0 -265 -146q-31 -46 -44 -102.5t-13 -144.5v-451h-152v1176h-251z" />
<glyph unicode="&#x45c;" horiz-adv-x="999" d="M129 0v1120h152v-499l512 499h196l-559 -542l559 -578h-198l-510 528v-528h-152zM336 1364l395 238l69 -119l-395 -234z" />
<glyph unicode="&#x45d;" horiz-adv-x="1243" d="M129 0v1120h152v-905l682 905h151v-1120h-151v905l-682 -905h-152zM306 1470l65 119l406 -225l-68 -115z" />
<glyph unicode="&#x45e;" horiz-adv-x="1097" d="M18 1120h166l355 -893l379 893h161l-647 -1513h-162l183 430zM238 1528h151q0 -172 160 -172t160 172h151q-23 -134 -103.5 -200t-207.5 -66t-207.5 66t-103.5 200z" />
<glyph unicode="&#x45f;" horiz-adv-x="1204" d="M129 0v1120h152v-983h643v983h151v-1120h-391l-31 -268h-102l-31 268h-391z" />
<glyph unicode="&#x462;" horiz-adv-x="1415" d="M25 1145v137h358v231h152v-231h419v-137h-419v-275h284q147 0 238.5 -21t159.5 -69q72 -52 109.5 -139.5t37.5 -198.5q0 -126 -45.5 -220t-130.5 -144q-69 -42 -160 -60t-233 -18h-412v1145h-358zM535 137h208q199 0 301 31q79 25 122.5 96t43.5 176q0 87 -31 150t-89 94 q-85 49 -283 49h-272v-596z" />
<glyph unicode="&#x463;" horiz-adv-x="1214" d="M25 983v137h276v393h152v-393h317v-137h-317v-311h329q174 0 279.5 -94.5t105.5 -241.5t-105.5 -241.5t-279.5 -94.5h-481v983h-276zM453 137h290q271 0 271 199t-271 199h-290v-398z" />
<glyph unicode="&#x490;" horiz-adv-x="909" d="M156 0v1513h602l33 226h104v-363h-588v-1376h-151z" />
<glyph unicode="&#x491;" horiz-adv-x="727" d="M129 0v1120h440l33 195h100v-332h-421v-983h-152z" />
<glyph unicode="&#x2000;" horiz-adv-x="987" />
<glyph unicode="&#x2001;" horiz-adv-x="1975" />
<glyph unicode="&#x2002;" horiz-adv-x="987" />
<glyph unicode="&#x2003;" horiz-adv-x="1975" />
<glyph unicode="&#x2004;" horiz-adv-x="658" />
<glyph unicode="&#x2005;" horiz-adv-x="493" />
<glyph unicode="&#x2006;" horiz-adv-x="329" />
<glyph unicode="&#x2007;" horiz-adv-x="329" />
<glyph unicode="&#x2008;" horiz-adv-x="246" />
<glyph unicode="&#x2009;" horiz-adv-x="395" />
<glyph unicode="&#x200a;" horiz-adv-x="109" />
<glyph unicode="&#x2010;" horiz-adv-x="679" d="M63 477v129h555v-129h-555z" />
<glyph unicode="&#x2011;" horiz-adv-x="679" d="M63 477v129h555v-129h-555z" />
<glyph unicode="&#x2012;" horiz-adv-x="679" d="M63 477v129h555v-129h-555z" />
<glyph unicode="&#x2013;" horiz-adv-x="1024" d="M0 477v129h1024v-129h-1024z" />
<glyph unicode="&#x2014;" horiz-adv-x="2048" d="M0 477v129h2048v-129h-2048z" />
<glyph unicode="&#x2018;" horiz-adv-x="718" d="M201 1513h151l180 -393h-151z" />
<glyph unicode="&#x2019;" horiz-adv-x="718" d="M186 1120l181 393h151l-180 -393h-152z" />
<glyph unicode="&#x201a;" horiz-adv-x="724" d="M182 -137l180 395h152l-180 -395h-152z" />
<glyph unicode="&#x201c;" horiz-adv-x="1028" d="M197 1513h151l180 -393h-151zM500 1513h151l180 -393h-151z" />
<glyph unicode="&#x201d;" horiz-adv-x="991" d="M178 1120l180 393h152l-180 -393h-152zM473 1120l180 393h152l-180 -393h-152z" />
<glyph unicode="&#x201e;" horiz-adv-x="1028" d="M182 -137l180 395h152l-180 -395h-152zM483 -137l181 395h151l-180 -395h-152z" />
<glyph unicode="&#x2026;" horiz-adv-x="2048" d="M266 0v258h152v-258h-152zM948 0v258h152v-258h-152zM1630 0v258h152v-258h-152z" />
<glyph unicode="&#x202f;" horiz-adv-x="395" />
<glyph unicode="&#x2039;" horiz-adv-x="514" d="M82 614l229 408l121 -66l-190 -342l190 -344l-121 -67z" />
<glyph unicode="&#x203a;" horiz-adv-x="514" d="M82 270l190 344l-190 342l121 66l229 -408l-229 -411z" />
<glyph unicode="&#x205f;" horiz-adv-x="493" />
<glyph unicode="&#x20ac;" horiz-adv-x="1781" d="M94 539l62 137h174q-4 25 -4 76q0 41 2 61h-234l62 137h192q62 264 270 427t492 163q179 0 332 -66.5t258 -187.5l-70 -158q-44 68 -80.5 107t-87.5 70q-152 96 -346 96q-219 0 -385 -124.5t-225 -326.5h1046l-61 -137h-1010q-2 -18 -2 -55q0 -28 4 -82h949l-62 -137 h-854q68 -189 233 -307.5t369 -118.5q147 0 272 64t214 169v-209q-197 -164 -484 -164q-280 0 -489 156.5t-279 409.5h-258z" />
<glyph unicode="&#x2122;" horiz-adv-x="2048" d="M129 1395v118h717v-118h-295v-699h-131v699h-291zM944 696v817h223l260 -581l277 581h217v-817h-131v705l-320 -705h-86l-309 707v-707h-131z" />
<glyph unicode="&#x25fc;" horiz-adv-x="1120" d="M0 0v1120h1120v-1120h-1120z" />
</font>
</defs>
</svg>
