<?xml version="1.0" standalone="no"?>
<!DOCTYPE svg PUBLIC "-//W3C//DTD SVG 1.1//EN" "http://www.w3.org/Graphics/SVG/1.1/DTD/svg11.dtd" >
<svg xmlns="http://www.w3.org/2000/svg" xmlns:xlink="http://www.w3.org/1999/xlink" version="1.1">
<metadata></metadata>
<defs>
<font id="evolventabold" horiz-adv-x="1146" >
<font-face units-per-em="2048" ascent="1638" descent="-410" />
<missing-glyph horiz-adv-x="573" />
<glyph unicode="&#xfb01;" horiz-adv-x="1079" d="M41 887v227h98q10 109 31 169t66 110q105 120 278 120q35 0 68 -4v-258h-29q-78 0 -108.5 -30t-32.5 -107h153v-227h-153v-887h-273v887h-98zM696 0v1135h273v-1135h-273zM696 1257v256h273v-256h-273z" />
<glyph unicode="&#xfb02;" horiz-adv-x="1079" d="M41 887v227h98q10 109 31 169t66 110q105 120 278 120q35 0 68 -4v-258h-29q-78 0 -108.5 -30t-32.5 -107h153v-227h-153v-887h-273v887h-98zM696 0v1513h273v-1513h-273z" />
<glyph horiz-adv-x="0" />
<glyph unicode="&#xd;" horiz-adv-x="682" />
<glyph unicode=" "  horiz-adv-x="573" />
<glyph unicode="&#x09;" horiz-adv-x="573" />
<glyph unicode="&#xa0;" horiz-adv-x="573" />
<glyph unicode="!" horiz-adv-x="657" d="M193 0v262h272v-262h-272zM193 385v1128h272v-1128h-272z" />
<glyph unicode="&#x22;" horiz-adv-x="690" d="M131 1051v462h156v-462h-156zM403 1051v462h156v-462h-156z" />
<glyph unicode="#" d="M70 477v205h225l24 182h-196v203h225l60 446h184l-60 -446h179l59 446h184l-59 -446h182v-203h-211l-24 -182h182v-205h-209l-65 -477h-185l66 477h-178l-64 -477h-186l65 477h-198zM479 682h178l25 182h-176z" />
<glyph unicode="$" d="M127 483v27h274q4 -81 51 -128.5t121 -47.5t123 48.5t49 121.5q0 50 -18 82.5t-61 60.5q-27 18 -51 28.5t-164 63.5q-265 101 -265 369q0 146 72.5 245.5t198.5 127.5v272h260v-272q104 -20 176.5 -121t77.5 -232h-258q-12 62 -46.5 94.5t-86.5 32.5q-54 0 -87.5 -36.5 t-33.5 -94.5q0 -82 59 -123q24 -20 58 -35.5t116 -45.5q90 -31 136 -55t81 -56q109 -98 109 -295q0 -158 -79.5 -269t-221.5 -151v-270h-260v270q-152 43 -241 147.5t-89 241.5z" />
<glyph unicode="%" horiz-adv-x="1761" d="M47 1169q0 157 108 264t265 107q151 0 259.5 -109t108.5 -260q0 -154 -108 -262t-262 -108t-262.5 108t-108.5 260zM268 1171q0 -63 44 -107t106 -44q63 0 107 44t44 107t-44.5 107.5t-108.5 44.5q-61 0 -104.5 -44.5t-43.5 -107.5zM461 0l624 1513h211l-626 -1513h-209z M973 342q0 157 108 264t265 107q151 0 259.5 -109t108.5 -260q0 -154 -108.5 -262.5t-262.5 -108.5q-153 0 -261.5 108.5t-108.5 260.5zM1194 344q0 -63 43.5 -107t105.5 -44q63 0 107.5 44t44.5 107t-45 107.5t-109 44.5q-61 0 -104 -44.5t-43 -107.5z" />
<glyph unicode="&#x26;" horiz-adv-x="1392" d="M70 457q0 138 66.5 240.5t215.5 189.5q-74 82 -100.5 139.5t-26.5 138.5q0 158 110 266.5t271 108.5q168 0 279.5 -106.5t111.5 -266.5q0 -155 -96 -262q-39 -44 -141 -108l137 -154l147 244h306l-263 -449l271 -288l-195 -177l-215 228q-97 -129 -180.5 -178.5 t-204.5 -49.5q-209 0 -351 140t-142 344zM342 440q0 -86 58 -141t147 -55q69 0 114 34.5t99 127.5l-236 253q-97 -44 -139.5 -95.5t-42.5 -123.5zM485 1159q0 -40 22.5 -78t82.5 -96q84 42 115.5 80t31.5 94q0 55 -34.5 90t-90.5 35q-55 0 -91 -35.5t-36 -89.5z" />
<glyph unicode="'" horiz-adv-x="417" d="M131 1051v462h156v-462h-156z" />
<glyph unicode="(" horiz-adv-x="731" d="M74 614q0 221 86.5 421.5t238.5 334.5q55 48 105.5 78t132.5 65v-294q-139 -107 -213 -263t-74 -342q0 -180 80.5 -348t206.5 -250v-297q-96 32 -166 80.5t-145 134.5q-121 138 -186.5 315t-65.5 365z" />
<glyph unicode=")" horiz-adv-x="731" d="M94 14q139 107 213 262.5t74 341.5q0 180 -80.5 348.5t-206.5 250.5v296q96 -33 167 -81.5t145 -133.5q121 -137 186 -314.5t65 -365.5q0 -221 -86.5 -421t-238.5 -334q-55 -48 -106 -78.5t-132 -65.5v295z" />
<glyph unicode="*" horiz-adv-x="837" d="M111 1135v145l202 -10l-108 176l129 65l90 -176l94 178l121 -73l-111 -170l199 12v-147l-199 10l109 -164l-117 -78l-96 180l-88 -180l-131 64l106 182z" />
<glyph unicode="+" horiz-adv-x="1228" d="M98 639v242h394v399h245v-399h393v-242h-393v-399h-245v399h-394z" />
<glyph unicode="," horiz-adv-x="575" d="M152 0v262h272v-276q0 -172 -135 -244q-57 -29 -137 -29v137q64 12 92 38.5t28 74.5q0 23 -2 37h-118z" />
<glyph unicode="-" horiz-adv-x="690" d="M61 469v242h568v-242h-568z" />
<glyph unicode="." horiz-adv-x="575" d="M152 0v262h272v-262h-272z" />
<glyph unicode="/" horiz-adv-x="942" d="M25 -262l661 1775h193l-662 -1775h-192z" />
<glyph unicode="0" d="M66 506v514q0 239 137 379.5t370 140.5q230 0 368 -138t138 -368v-528q0 -252 -130 -392.5t-363 -140.5q-279 0 -424 193q-96 130 -96 340zM338 514q0 -141 61.5 -216t178.5 -75q229 0 229 285v512q0 130 -60.5 200t-171.5 70q-110 0 -173.5 -72t-63.5 -198v-506z" />
<glyph unicode="1" d="M297 1257v256h463v-1513h-273v1257h-190z" />
<glyph unicode="2" d="M74 991q0 113 20 190.5t66 147.5q66 99 176 155t239 56q212 0 353 -140t141 -351q0 -139 -63.5 -250t-229.5 -262l-309 -281h596v-256h-979v240l539 510q93 87 133.5 158t40.5 145q0 101 -62.5 169t-156.5 68q-106 0 -171 -82t-65 -217h-268z" />
<glyph unicode="3" d="M45 459h274q14 -108 80.5 -172t165.5 -64q103 0 170.5 71.5t67.5 180.5q0 116 -80.5 185t-216.5 69h-45v262q98 3 149 23q84 38 84 133q0 63 -37 103t-96 40q-57 0 -87.5 -33t-39.5 -104h-276q8 96 30.5 154t73.5 110q117 123 297 123q175 0 291.5 -116t116.5 -291 q0 -88 -30.5 -151t-96.5 -110q235 -107 235 -391q0 -220 -144 -364t-364 -144q-218 0 -364 136t-158 350z" />
<glyph unicode="4" d="M20 227v222l697 1064h229v-1042h160v-244h-160v-227h-272v227h-654zM297 471h377v584z" />
<glyph unicode="5" d="M43 453h272q22 -111 85 -170.5t161 -59.5q110 0 180 78t70 201q0 116 -70 193t-176 77q-65 0 -112.5 -26t-98.5 -89l-241 66l141 790h684v-256h-479l-49 -278q58 25 99.5 34t94.5 9q207 0 343 -146.5t136 -369.5q0 -229 -146.5 -381t-367.5 -152q-140 0 -258 63 t-189.5 173t-78.5 244z" />
<glyph unicode="6" d="M49 496q0 111 33.5 206.5t116.5 217.5l395 593h326l-363 -538q59 20 123 20q182 0 300 -135t118 -344q0 -238 -145.5 -390.5t-372.5 -152.5q-150 0 -272 67.5t-190.5 187.5t-68.5 268zM322 489q0 -117 72.5 -191.5t187.5 -74.5q107 0 175 74t68 192q0 119 -71.5 194 t-186.5 75q-107 0 -176 -76t-69 -193z" />
<glyph unicode="7" d="M133 1257v256h891v-256l-553 -1257h-307l573 1257h-604z" />
<glyph unicode="8" d="M70 473q0 158 86 264q24 31 51.5 53.5t79.5 51.5q-71 75 -98 136t-27 146q0 173 121.5 294.5t294.5 121.5q178 0 295.5 -117.5t117.5 -294.5q0 -185 -127 -286q49 -30 74 -48.5t47 -43.5q92 -106 92 -275q0 -215 -143.5 -358.5t-358.5 -143.5t-360 144t-145 356zM342 461 q0 -100 68 -169t168 -69q97 0 162 68.5t65 171.5q0 99 -67.5 167t-166.5 68q-95 0 -162 -69.5t-67 -167.5zM422 1124q0 -69 45.5 -116t110.5 -47t109 48.5t44 118.5q0 69 -45 115.5t-111 46.5q-64 0 -108.5 -48.5t-44.5 -117.5z" />
<glyph unicode="9" d="M51 997q0 238 144 390.5t370 152.5q229 0 380 -149t151 -375q0 -108 -34 -203t-116 -219l-395 -594h-326l365 539q-68 -25 -123 -25q-178 0 -297 138.5t-119 344.5zM324 1024q0 -118 70.5 -193t180.5 -75q108 0 178 75t70 193q0 119 -72.5 192.5t-189.5 73.5 q-104 0 -170.5 -74.5t-66.5 -191.5z" />
<glyph unicode=":" horiz-adv-x="575" d="M152 0v262h272v-262h-272zM152 756v272h272v-272h-272z" />
<glyph unicode=";" horiz-adv-x="575" d="M152 0v262h272v-276q0 -75 -20.5 -123t-67.5 -88q-71 -62 -184 -62v137q66 12 93 39t27 80v31h-120zM152 756v272h272v-272h-272z" />
<glyph unicode="&#x3c;" horiz-adv-x="1228" d="M90 528v201l1043 463v-240l-699 -321l699 -326v-237z" />
<glyph unicode="=" horiz-adv-x="1228" d="M98 430v242h1032v-242h-1032zM98 829v242h1032v-242h-1032z" />
<glyph unicode="&#x3e;" horiz-adv-x="1228" d="M96 68v237l701 322l-701 325v240l1043 -463v-201z" />
<glyph unicode="?" horiz-adv-x="1062" d="M63 1065q7 103 32 174.5t73 130.5q66 82 160.5 126t201.5 44q198 0 329.5 -134t131.5 -335q0 -103 -45 -182t-164 -184q-85 -72 -109 -130.5t-24 -191.5h-272q0 192 48.5 294.5t201.5 227.5q92 76 92 174q0 83 -55 137t-140 54q-83 0 -128.5 -50t-59.5 -155h-273zM377 0 v262h272v-262h-272z" />
<glyph unicode="@" horiz-adv-x="1667" d="M74 772q0 223 103 406t283 287t400 104q219 0 395 -102t263 -277q75 -153 75 -377q0 -222 -119.5 -360t-312.5 -138q-162 0 -203 111q-39 -58 -93.5 -84.5t-137.5 -26.5q-155 0 -246.5 105.5t-91.5 284.5q0 204 118 340.5t296 136.5q83 0 136.5 -26.5t104.5 -92.5l15 111 h196l-67 -605q-2 -8 -2 -26q0 -31 13 -44.5t42 -13.5q82 0 142.5 107.5t60.5 253.5q0 257 -160 416t-418 159q-184 0 -332 -84.5t-231.5 -234t-83.5 -334.5q0 -144 58 -274t161 -220q83 -72 202 -111.5t249 -39.5q175 0 305 96l94 -123q-85 -66 -178.5 -94.5t-224.5 -28.5 q-403 0 -633 285q-86 106 -132 238.5t-46 275.5zM635 727q0 -91 43.5 -143t118.5 -52q89 0 145.5 65.5t56.5 168.5q0 89 -41 137.5t-116 48.5q-85 0 -146 -66.5t-61 -158.5z" />
<glyph unicode="A" horiz-adv-x="1515" d="M14 0l631 1513h221l635 -1513h-309l-162 391h-538l-168 -391h-310zM594 659h324l-162 459z" />
<glyph unicode="B" horiz-adv-x="1202" d="M145 0v1513h312q173 0 260.5 -16.5t156.5 -62.5q78 -53 121 -137.5t43 -186.5q0 -107 -38.5 -172.5t-129.5 -112.5q76 -31 116.5 -59t72.5 -72q69 -94 69 -243q0 -120 -54 -218t-152 -155q-135 -78 -373 -78h-404zM426 268h139q147 0 214 45.5t67 145.5t-70.5 148 t-216.5 48h-133v-387zM426 930h90q128 0 185 36.5t57 118.5q0 154 -217 154h-115v-309z" />
<glyph unicode="C" horiz-adv-x="1642" d="M74 762q0 158 62 302t166 248t248 166t302 62q143 0 275.5 -47.5t238.5 -136.5q72 -62 116 -122t87 -155h-314q-77 100 -171 145.5t-226 45.5q-237 0 -377 -166q-58 -67 -91.5 -159t-33.5 -185q0 -139 68 -258t185 -188.5t255 -69.5q109 0 195.5 41t179.5 137h330 q-89 -207 -277.5 -328t-421.5 -121q-109 0 -212.5 28t-190.5 79t-160.5 123.5t-124.5 159t-79.5 189t-28.5 210.5z" />
<glyph unicode="D" horiz-adv-x="1431" d="M145 0v1513h347q371 0 552 -118q151 -97 232.5 -263.5t81.5 -377.5q0 -234 -101.5 -412.5t-281.5 -263.5q-92 -42 -201.5 -60t-275.5 -18h-353zM426 268h61q242 0 369 68q101 55 160 168t59 250q0 149 -64 264.5t-177 171.5q-64 31 -143 43t-210 12h-55v-977z" />
<glyph unicode="E" horiz-adv-x="1073" d="M145 0v1513h813v-268h-532v-356h510v-268h-510v-353h532v-268h-813z" />
<glyph unicode="F" horiz-adv-x="1013" d="M145 0v1513h770v-268h-489v-356h467v-268h-467v-621h-281z" />
<glyph unicode="G" horiz-adv-x="1755" d="M74 760q0 161 62.5 305.5t168.5 248.5t253.5 165t311.5 61q163 0 315 -60t264.5 -168t160.5 -243h-330q-70 98 -177 149.5t-239 51.5q-109 0 -204.5 -38.5t-161.5 -109.5q-65 -69 -103.5 -168.5t-38.5 -197.5q0 -218 151 -365t374 -147q150 0 266 70t178 196h-627v262 h990v-37q0 -146 -56.5 -282.5t-161.5 -245.5q-228 -234 -573 -234q-172 0 -324.5 61t-262 165.5t-173 250.5t-63.5 310z" />
<glyph unicode="H" horiz-adv-x="1392" d="M145 0v1513h281v-610h541v610h280v-1513h-280v635h-541v-635h-281z" />
<glyph unicode="I" horiz-adv-x="571" d="M145 0v1513h281v-1513h-281z" />
<glyph unicode="J" horiz-adv-x="1011" d="M37 358h280q27 -114 134 -114q135 0 135 198v1071h280v-1079q0 -214 -109.5 -337.5t-299.5 -123.5q-98 0 -184.5 38t-145.5 106q-43 50 -63 102t-27 139z" />
<glyph unicode="K" horiz-adv-x="1257" d="M145 0v1513h281v-653l469 653h338l-569 -743l569 -770h-338l-469 666v-666h-281z" />
<glyph unicode="L" horiz-adv-x="929" d="M145 0v1513h281v-1245h463v-268h-744z" />
<glyph unicode="M" horiz-adv-x="1871" d="M145 0v1513h385l408 -1146l403 1146h385v-1513h-280v1135l-395 -1135h-230l-395 1135v-1135h-281z" />
<glyph unicode="N" horiz-adv-x="1517" d="M145 0v1513h320l627 -1101v1101h280v-1513h-313l-633 1100v-1100h-281z" />
<glyph unicode="O" horiz-adv-x="1724" d="M74 756q0 163 62 308.5t168 249.5t254.5 165t315.5 61q158 0 302 -62t248 -166.5t165.5 -249.5t61.5 -304q0 -218 -103 -398t-282 -283.5t-396 -103.5q-164 0 -311.5 61t-253.5 165.5t-168.5 250t-62.5 306.5zM356 758q0 -107 40 -202t108 -163.5t163 -108.5t201 -40 q215 0 357.5 145t142.5 365q0 223 -145.5 369.5t-366.5 146.5q-207 0 -353.5 -149.5t-146.5 -362.5z" />
<glyph unicode="P" horiz-adv-x="1173" d="M145 0v1513h375q155 0 243.5 -17t156.5 -60q92 -60 142 -161t50 -228q0 -135 -56.5 -245t-154.5 -165q-62 -34 -147 -48t-238 -14h-90v-575h-281zM426 844h82q128 0 192 20q60 17 94.5 64t34.5 112q0 72 -35 123t-96 68q-60 14 -178 14h-94v-401z" />
<glyph unicode="Q" horiz-adv-x="1769" d="M74 758q0 162 62.5 307t169.5 249t256.5 165t316.5 61q170 0 319 -60t255 -164.5t167 -251.5t61 -314q0 -295 -182 -486q86 -45 152 -45q17 0 57 6v-254q-16 -2 -39 -2q-96 0 -177.5 28.5t-178.5 94.5q-82 -56 -193 -87.5t-225 -31.5q-169 0 -321.5 61.5t-262 166.5 t-173.5 250t-64 307zM354 754q0 -35 4 -70q108 27 234 27q181 0 363.5 -78t320.5 -215q123 126 123 327q0 226 -149 375.5t-373 149.5t-373.5 -147.5t-149.5 -368.5zM444 465q88 -114 197 -167.5t252 -53.5q59 0 97 8t85 31q-131 105 -245.5 151.5t-239.5 46.5 q-62 0 -146 -16z" />
<glyph unicode="R" horiz-adv-x="1236" d="M145 0v1513h437q161 0 255 -26.5t169 -93.5q149 -134 149 -365q0 -232 -164 -364q-47 -38 -96.5 -60.5t-134.5 -44.5l409 -559h-346l-397 580v-580h-281zM426 791h137q163 0 236 54.5t73 174.5q0 117 -77 176q-63 49 -244 49h-125v-454z" />
<glyph unicode="S" horiz-adv-x="1073" d="M39 432h293q18 -188 205 -188q91 0 147.5 51t56.5 133q0 101 -75 158q-34 25 -70.5 41t-185.5 71q-153 57 -234.5 163t-81.5 249q0 180 128 305t313 125q109 0 205 -45.5t157 -126.5q41 -56 61.5 -115.5t24.5 -142.5h-291q-6 76 -48 118t-112 42q-69 0 -112 -43t-43 -111 q0 -85 88 -139q19 -13 164 -66q113 -43 162.5 -69.5t93.5 -67.5q135 -123 135 -315q0 -205 -139.5 -345.5t-343.5 -140.5q-125 0 -232.5 51t-173.5 142q-44 60 -65 120t-27 146z" />
<glyph unicode="T" horiz-adv-x="870" d="M14 1245v268h842v-268h-281v-1245h-280v1245h-281z" />
<glyph unicode="U" horiz-adv-x="1312" d="M145 555v958h281v-958q0 -85 7.5 -128.5t29.5 -80.5q29 -48 80 -75t112 -27q63 0 114.5 27t80.5 75q22 37 29.5 80.5t7.5 128.5v958h280v-958q0 -136 -25.5 -228.5t-82.5 -166.5q-69 -88 -176.5 -137.5t-227.5 -49.5q-136 0 -252.5 63.5t-181.5 172.5q-76 129 -76 346z " />
<glyph unicode="V" horiz-adv-x="1421" d="M8 1513h295l408 -1151l407 1151h295l-586 -1513h-229z" />
<glyph unicode="W" horiz-adv-x="1873" d="M25 1513h286l267 -1056l258 1056h204l254 -1056l269 1056h286l-442 -1513h-223l-244 1001l-250 -1001h-221z" />
<glyph unicode="X" horiz-adv-x="1402" d="M14 0l521 754l-521 759h334l352 -528l363 528h326l-525 -759l525 -754h-326l-363 522l-352 -522h-334z" />
<glyph unicode="Y" horiz-adv-x="1304" d="M14 1513h303l336 -696l334 696h303l-497 -954v-559h-281v559z" />
<glyph unicode="Z" horiz-adv-x="1069" d="M61 0v238l574 1007h-543v268h877v-251l-570 -994h609v-268h-947z" />
<glyph unicode="[" horiz-adv-x="641" d="M119 383v530q0 288 166 451q54 55 113 86.5t167 62.5v-301q-55 -23 -83.5 -47t-45.5 -61q-41 -90 -41 -246v-522q0 -125 41 -209q19 -38 47 -61.5t82 -45.5v-301q-124 28 -208 86.5t-146 159.5q-92 157 -92 418z" />
<glyph unicode="\" horiz-adv-x="985" d="M63 1513h193l666 -1513h-193z" />
<glyph unicode="]" horiz-adv-x="641" d="M76 20q55 23 83 47.5t46 61.5q41 90 41 246v522q0 125 -41 209q-19 38 -47 61t-82 45v301q125 -28 209 -86t145 -159q92 -157 92 -418v-531q0 -286 -164 -450q-55 -55 -115.5 -87.5t-166.5 -62.5v301z" />
<glyph unicode="^" horiz-adv-x="1228" d="M123 743l366 770h250l367 -770l-213 -102l-279 565l-278 -565z" />
<glyph unicode="_" horiz-adv-x="1024" d="M0 -98h1024v-185h-1024v185z" />
<glyph unicode="`" horiz-adv-x="833" d="M131 1509l117 181l454 -273l-108 -162z" />
<glyph unicode="a" horiz-adv-x="1366" d="M57 563q0 171 74 307.5t206 213.5t298 77q123 0 212 -42.5t159 -135.5v152h249v-1135h-249v147q-82 -93 -169.5 -133.5t-207.5 -40.5q-164 0 -294.5 75.5t-204 210.5t-73.5 304zM332 557q0 -149 93.5 -241.5t242.5 -92.5q148 0 238.5 94t90.5 246q0 154 -94.5 251 t-243.5 97q-142 0 -234.5 -100t-92.5 -254z" />
<glyph unicode="b" horiz-adv-x="1363" d="M111 0v1513h272v-483q80 79 160.5 112.5t191.5 33.5q162 0 293 -78t205 -215.5t74 -307.5q0 -231 -133 -403q-156 -199 -420 -199q-126 0 -216 39t-178 133v-145h-249zM367 571q0 -153 94 -250.5t241 -97.5q146 0 238 96.5t92 251.5q0 157 -94.5 256t-245.5 99 q-142 0 -233.5 -100t-91.5 -255z" />
<glyph unicode="c" horiz-adv-x="1280" d="M57 567q0 164 79 300.5t216.5 215t302.5 78.5q122 0 232.5 -43.5t193.5 -124.5q54 -53 85.5 -103.5t60.5 -133.5h-307q-80 155 -265 155q-142 0 -232.5 -95.5t-90.5 -246.5q0 -149 94.5 -247.5t235.5 -98.5q84 0 145.5 36t112.5 114h307q-71 -191 -217.5 -295.5 t-345.5 -104.5q-124 0 -236.5 47t-193.5 126t-129 189t-48 232z" />
<glyph unicode="d" horiz-adv-x="1361" d="M57 569q0 167 75.5 307t206 220t286.5 80q107 0 200.5 -38t153.5 -104v479h272v-1513h-250v147q-83 -92 -171 -133t-203 -41q-159 0 -289.5 78t-205.5 215t-75 303zM332 578q0 -149 98.5 -252t239.5 -103q138 0 233.5 101t95.5 247q0 154 -96 254.5t-244 100.5 q-138 0 -232.5 -100t-94.5 -248z" />
<glyph unicode="e" horiz-adv-x="1298" d="M57 563q0 164 79.5 301.5t217 217t301.5 79.5q167 0 301 -78.5t209.5 -218t75.5 -313.5q0 -56 -10 -105h-879q25 -103 109 -163t205 -60q84 0 140 25.5t109 87.5h297q-24 -77 -90 -158q-176 -205 -450 -205q-128 0 -242 46t-195.5 124.5t-129.5 188t-48 231.5zM344 686 h629q-26 109 -107 167t-207 58q-122 0 -202.5 -57.5t-112.5 -167.5z" />
<glyph unicode="f" horiz-adv-x="602" d="M41 887v227h98q10 109 31 169t66 110q105 120 278 120q35 0 68 -4v-258h-29q-78 0 -108.5 -30t-32.5 -107h153v-227h-153v-887h-273v887h-98z" />
<glyph unicode="g" horiz-adv-x="1357" d="M57 575q0 252 159 419t400 167q244 0 371 -170v144h260v-920q0 -169 -29.5 -280.5t-95.5 -190.5q-162 -197 -463 -197q-208 0 -361 95t-222 266h309q60 -66 125 -93.5t160 -27.5q152 0 231 90t86 273q-80 -94 -166.5 -135.5t-206.5 -41.5q-160 0 -287.5 77t-198.5 214.5 t-71 310.5zM332 563q0 -155 86.5 -247.5t232.5 -92.5q148 0 236 93.5t88 250.5q0 154 -91.5 249t-240.5 95q-140 0 -225.5 -95.5t-85.5 -252.5z" />
<glyph unicode="h" horiz-adv-x="1222" d="M111 0v1513h272v-456q117 106 289 106q125 0 222.5 -48.5t152.5 -139.5q38 -63 53.5 -138t15.5 -196v-641h-272v580q0 180 -50.5 255.5t-170.5 75.5q-145 0 -203 -114q-37 -67 -37 -222v-575h-272z" />
<glyph unicode="i" horiz-adv-x="493" d="M111 0v1135h272v-1135h-272zM111 1257v256h272v-256h-272z" />
<glyph unicode="j" horiz-adv-x="522" d="M27 -115q41 7 61 15t33 31t15.5 54.5t2.5 96.5v1053h273v-1059q0 -127 -29 -212.5t-92 -144.5q-106 -98 -264 -98v264zM139 1257v256h273v-256h-273z" />
<glyph unicode="k" horiz-adv-x="1140" d="M111 0v1513h272v-913l362 535h326l-405 -555l471 -580h-367l-387 530v-530h-272z" />
<glyph unicode="l" horiz-adv-x="493" d="M111 0v1513h272v-1513h-272z" />
<glyph unicode="m" horiz-adv-x="1918" d="M111 0v1135h249v-107q60 72 127.5 102.5t167.5 30.5q119 0 197.5 -41t136.5 -135q69 92 156 134t207 42q134 0 236.5 -49.5t156.5 -140.5q67 -118 67 -316v-655h-272v623q0 87 -13 139t-42 84q-56 65 -158 65q-137 0 -194 -114q-35 -71 -35 -238v-559h-273v623 q0 158 -51 221q-58 67 -168 67q-145 0 -196 -123q-27 -67 -27 -229v-559h-272z" />
<glyph unicode="n" horiz-adv-x="1224" d="M111 0v1135h251v-109q75 73 148 104t172 31q248 0 362 -174q41 -66 57.5 -149t16.5 -230v-608h-272v555q0 220 -58 289q-55 67 -159 67q-140 0 -203 -110q-25 -39 -34 -97t-9 -169v-535h-272z" />
<glyph unicode="o" horiz-adv-x="1320" d="M57 565q0 122 47.5 232.5t129 190t194.5 126.5t238 47q162 0 300 -80t218 -217.5t80 -298.5q0 -160 -80.5 -296.5t-219.5 -216t-302 -79.5q-164 0 -303.5 79.5t-220.5 216t-81 296.5zM332 567q0 -142 96 -243t231 -101q136 0 233 100.5t97 241.5q0 146 -97 246t-237 100 q-132 0 -227.5 -101.5t-95.5 -242.5z" />
<glyph unicode="p" horiz-adv-x="1355" d="M111 -379v1514h249v-134q135 160 373 160q162 0 291 -75.5t201.5 -210.5t72.5 -304q0 -170 -73 -306.5t-202.5 -214t-291.5 -77.5q-104 0 -187 32t-161 101v-485h-272zM367 563q0 -145 96 -242.5t237 -97.5q137 0 230.5 98.5t93.5 243.5q0 150 -94 248t-238 98 q-138 0 -231.5 -99.5t-93.5 -248.5z" />
<glyph unicode="q" horiz-adv-x="1357" d="M57 571q0 162 76 298t207.5 214t288.5 78q124 0 212 -41.5t156 -130.5v146h250v-1514h-272v488q-136 -136 -342 -136q-161 0 -293 78.5t-207.5 215.5t-75.5 304zM332 565q0 -148 94.5 -245t239.5 -97q140 0 232.5 96.5t92.5 243.5q0 152 -93 250t-239 98 q-138 0 -232.5 -100t-94.5 -246z" />
<glyph unicode="r" horiz-adv-x="675" d="M111 0v1135h249v-111q54 79 106 108t140 29h21v-262q-244 -6 -244 -268v-631h-272z" />
<glyph unicode="s" horiz-adv-x="897" d="M31 360h274q20 -72 56 -104.5t96 -32.5q54 0 88.5 31.5t34.5 79.5q0 56 -52 88q-22 13 -43 22t-98 35q-170 57 -242.5 134t-72.5 202q0 146 108.5 246t268.5 100q88 0 166.5 -35t132.5 -98q37 -44 53.5 -91t19.5 -116h-266q-18 90 -106 90q-44 0 -74.5 -27.5t-30.5 -68.5 q0 -52 53 -76q29 -12 140 -47q172 -53 243.5 -128t71.5 -204q0 -163 -118 -275t-288 -112q-105 0 -197.5 44.5t-146.5 119.5q-32 46 -48 95t-23 128z" />
<glyph unicode="t" horiz-adv-x="620" d="M27 887v248h133v378h272v-378h164v-248h-164v-887h-272v887h-133z" />
<glyph unicode="u" horiz-adv-x="1226" d="M106 526v609h273v-555q0 -118 13 -184.5t44 -104.5q59 -68 158 -68q71 0 126.5 28.5t84.5 80.5q22 38 30.5 98.5t8.5 169.5v535h272v-1135h-252v109q-78 -75 -150.5 -105.5t-174.5 -30.5q-115 0 -206 46.5t-147 132.5q-44 69 -62 152t-18 222z" />
<glyph unicode="v" horiz-adv-x="1142" d="M6 1135h303l262 -752l258 752h308l-457 -1135h-217z" />
<glyph unicode="w" horiz-adv-x="1599" d="M6 1135h293l203 -693l190 693h217l187 -693l207 693h290l-409 -1135h-170l-215 735l-219 -735h-168z" />
<glyph unicode="x" horiz-adv-x="1142" d="M6 0l402 586l-349 549h308l204 -342l201 342h307l-346 -549l404 -586h-328l-238 389l-237 -389h-328z" />
<glyph unicode="y" horiz-adv-x="1163" d="M6 1135h311l252 -736l275 736h313l-655 -1514h-293l213 485z" />
<glyph unicode="z" horiz-adv-x="987" d="M61 0v244l500 647h-442v244h768v-244l-500 -647h539v-244h-865z" />
<glyph unicode="{" horiz-adv-x="686" d="M82 543v166q86 10 126 58.5t40 141.5v322q0 149 68.5 217t220.5 68q39 0 88 -3v-163q-39 -3 -62.5 -7t-43.5 -14t-29.5 -22.5t-16.5 -37t-8.5 -53t-1.5 -75.5v-252q0 -120 -40.5 -178t-143.5 -86q101 -25 142.5 -84t41.5 -179v-251q0 -47 1.5 -75.5t8.5 -53t16.5 -37 t29.5 -22.5t43.5 -14t62.5 -7v-164q-33 -2 -88 -2q-152 0 -220.5 67.5t-68.5 216.5v322q0 93 -40 142t-126 59z" />
<glyph unicode="|" horiz-adv-x="1226" d="M492 0v1513h243v-1513h-243z" />
<glyph unicode="}" horiz-adv-x="686" d="M61 -98q39 3 62.5 7t43.5 14t29.5 22.5t16.5 37t8.5 53t1.5 75.5v251q0 120 41 178.5t144 86.5q-102 25 -143.5 83.5t-41.5 178.5v252q0 47 -1.5 75.5t-8.5 53t-16.5 37t-29.5 22.5t-43.5 14t-62.5 7v163q50 3 89 3q152 0 220 -67.5t68 -217.5v-322q0 -93 40 -141.5 t126 -58.5v-166q-86 -10 -126 -59t-40 -142v-322q0 -149 -68 -216.5t-220 -67.5q-56 0 -89 2v164z" />
<glyph unicode="~" horiz-adv-x="1228" d="M98 592q56 97 99 147q38 50 92 77.5t112 27.5q74 0 158 -33l137 -55q83 -34 101.5 -39.5t44.5 -5.5q36 0 77.5 40t79.5 111l131 -151q-80 -131 -146.5 -185.5t-149.5 -54.5q-70 0 -187 49l-110 45q-93 39 -131 39q-58 0 -101 -49q-8 -10 -63 -96q-3 -3 -15 -21z" />
<glyph unicode="&#xa2;" d="M90 780q0 104 41.5 200t116.5 165q45 41 91 64t118 42v213h256v-213q132 -32 224 -125t120 -219h-291q-31 43 -82.5 68.5t-108.5 25.5q-92 0 -152.5 -64t-60.5 -161q0 -96 63 -159.5t159 -63.5q101 0 174 82h299q-103 -269 -344 -332v-223h-256v223q-77 17 -131 47.5 t-105 85.5q-63 66 -97 156.5t-34 187.5z" />
<glyph unicode="&#xa3;" d="M0 635v256h119q-35 77 -35 166q0 203 142 343t347 140q196 0 329.5 -120t150.5 -312h-277q-22 87 -74.5 134.5t-126.5 47.5q-92 0 -155.5 -70t-63.5 -173q0 -91 56 -156h424v-256h-220q37 -71 51.5 -120.5t14.5 -104.5q0 -71 -27 -154q81 0 131 27q44 26 69.5 71t25.5 97 q0 43 -21 110h270q23 -62 23 -106q0 -99 -41 -190t-113 -154q-72 -62 -157 -86.5t-226 -24.5h-532v256h285q41 68 41 147q0 64 -27 117t-92 115h-291z" />
<glyph unicode="&#xa5;" d="M-66 1513h306l327 -698l330 698h315l-292 -555h188v-180h-287l-116 -215h403v-180h-403v-383h-273v383h-401v180h401l-115 215h-286v180h192z" />
<glyph unicode="&#xa7;" d="M72 711q0 96 37.5 166t121.5 133q-57 85 -57 190q0 151 114.5 245.5t297.5 94.5q184 0 290.5 -98t131.5 -289h-258q-13 72 -56 104.5t-121 32.5q-65 0 -102 -26.5t-37 -73.5q0 -82 125 -141l336 -166q82 -40 130 -117t48 -168q0 -85 -39.5 -160t-113.5 -131 q55 -55 78.5 -112.5t23.5 -131.5q0 -169 -123.5 -277t-316.5 -108q-242 0 -375 168q-44 57 -65.5 117t-28.5 150h274q0 -61 14 -93q23 -43 71.5 -67.5t111.5 -24.5q77 0 127.5 37.5t50.5 95.5q0 44 -30 74t-120 76l-333 172q-207 104 -207 328zM311 725q0 -35 28.5 -65 t94.5 -64l309 -156q35 25 55.5 59.5t20.5 69.5q0 37 -24.5 62t-98.5 63l-305 152q-43 -34 -61.5 -61.5t-18.5 -59.5z" />
<glyph unicode="&#xa8;" horiz-adv-x="964" d="M131 1290v273h272v-273h-272zM561 1290v273h273v-273h-273z" />
<glyph unicode="&#xa9;" horiz-adv-x="1619" d="M20 756q0 161 62.5 306.5t169 250t255 166t312.5 61.5q158 0 302 -62.5t249 -167.5t167 -250.5t62 -303.5q0 -159 -62.5 -304t-168 -250t-251.5 -167t-306 -62q-161 0 -307 62t-252 167t-169 250t-63 304zM184 758q0 -168 84 -311t228 -226.5t313 -83.5q127 0 243.5 49.5 t200.5 132.5t133.5 197.5t49.5 239.5q0 172 -84 316t-229.5 227t-319.5 83q-124 0 -238.5 -50t-198 -133.5t-133 -199t-49.5 -241.5zM375 762q0 186 128 313t316 127q157 0 281 -97.5t149 -240.5h-227q-25 68 -80.5 108t-124.5 40q-97 0 -162 -71t-65 -177t65.5 -179 t161.5 -73q137 0 205 143h227q-37 -150 -154.5 -241.5t-273.5 -91.5q-187 0 -316.5 127.5t-129.5 312.5z" />
<glyph unicode="&#xaa;" horiz-adv-x="782" d="M61 1212q0 136 87.5 230t213.5 94q122 0 199 -102v79h135v-610h-135v84q-78 -104 -209 -104q-123 0 -207 95t-84 234zM68 635v143h637v-143h-637zM217 1206q0 -72 48.5 -122t117.5 -50q71 0 118.5 50.5t47.5 125.5t-48 124.5t-120 49.5q-68 0 -116 -52.5t-48 -125.5z" />
<glyph unicode="&#xab;" horiz-adv-x="942" d="M92 489v205l285 267v-252l-137 -117l137 -119v-252zM528 489v205l285 267v-252l-137 -117l137 -119v-252z" />
<glyph unicode="&#xac;" horiz-adv-x="1228" d="M90 735v234h1032v-596h-233v362h-799z" />
<glyph unicode="&#xad;" horiz-adv-x="690" d="M61 469v242h568v-242h-568z" />
<glyph unicode="&#xae;" horiz-adv-x="1619" d="M20 756q0 161 62.5 306.5t169 250t255 166t312.5 61.5q158 0 302 -62.5t249 -167.5t167 -250.5t62 -303.5q0 -159 -62.5 -304t-168 -250t-251.5 -167t-306 -62q-161 0 -307 62t-252 167t-169 250t-63 304zM184 758q0 -168 84 -311t228 -226.5t313 -83.5q127 0 243.5 49.5 t200.5 132.5t133.5 197.5t49.5 239.5q0 172 -84 316t-229.5 227t-319.5 83q-124 0 -238.5 -50t-198 -133.5t-133 -199t-49.5 -241.5zM514 340v846h268q105 0 160 -13.5t98 -48.5q49 -38 77 -99.5t28 -129.5q0 -104 -57 -176.5t-152 -89.5l229 -289h-247l-197 274v-274h-207z M721 762h76q68 0 104.5 31t36.5 88q0 55 -35.5 84.5t-103.5 29.5h-78v-233z" />
<glyph unicode="&#xb0;" horiz-adv-x="819" d="M102 1094q0 131 91.5 221t224.5 90q126 0 212.5 -90.5t86.5 -222.5t-89 -223t-218 -91t-218.5 92t-89.5 224zM217 1092q0 -82 56.5 -139.5t136.5 -57.5t135 57t55 140t-55 139.5t-135 56.5q-79 0 -136 -58t-57 -138z" />
<glyph unicode="&#xb1;" horiz-adv-x="1228" d="M98 0v242h1032v-242h-1032zM98 696v242h394v399h245v-399h393v-242h-393v-338h-245v338h-394z" />
<glyph unicode="&#xb4;" horiz-adv-x="831" d="M131 1415l459 275l110 -189l-464 -246z" />
<glyph unicode="&#xb5;" horiz-adv-x="1230" d="M111 -379v1514h272v-535q0 -127 8.5 -175t40.5 -93q73 -109 195 -109q60 0 110 29t76 80q35 71 35 268v535h272v-1135h-252v109q-62 -74 -119.5 -105t-134.5 -31q-72 0 -126 31t-105 102v-485h-272z" />
<glyph unicode="&#xb6;" horiz-adv-x="1228" d="M76 1092q0 121 55.5 217t155.5 147q117 57 346 57h446v-1775h-207v1556h-172v-1556h-206v938q-187 3 -302.5 118t-115.5 298z" />
<glyph unicode="&#xb7;" horiz-adv-x="575" d="M152 614v273h272v-273h-272z" />
<glyph unicode="&#xb8;" horiz-adv-x="663" d="M131 -340h125q27 -61 78 -61q33 0 56.5 27.5t23.5 66.5q0 37 -23 63.5t-55 26.5q-23 0 -40.5 -12t-39.5 -43l-106 53l73 219h107l-43 -119q41 15 59 15q76 0 131 -61t55 -146q0 -91 -54 -147t-142 -56q-78 0 -135.5 49t-69.5 125z" />
<glyph unicode="&#xba;" horiz-adv-x="751" d="M61 637v143h629v-143h-629zM61 1225q0 130 93 220.5t227 90.5q127 0 218 -92t91 -221q0 -132 -91.5 -225t-221.5 -93t-223 94t-93 226zM211 1225q0 -72 47 -120t119 -48q70 0 117 48t47 120q0 69 -49.5 118.5t-118.5 49.5q-66 0 -114 -49.5t-48 -118.5z" />
<glyph unicode="&#xbb;" horiz-adv-x="942" d="M129 221v252l137 119l-137 117v252l285 -267v-205zM565 221v252l137 119l-137 117v252l285 -267v-205z" />
<glyph unicode="&#xf7;" horiz-adv-x="1228" d="M98 639v242h1032v-242h-1032zM475 150v268h277v-268h-277zM475 1102v268h277v-268h-277z" />
<glyph unicode="&#x2c6;" horiz-adv-x="1079" d="M131 1290l301 283h219l297 -283h-297l-108 131l-111 -131h-301z" />
<glyph unicode="&#x2da;" horiz-adv-x="684" d="M131 1460q0 88 62 149.5t151 61.5q86 0 147.5 -62.5t61.5 -148.5q0 -88 -61.5 -149.5t-149.5 -61.5t-149.5 61.5t-61.5 149.5zM268 1460q0 -31 21.5 -52.5t52.5 -21.5t52.5 21.5t21.5 52.5t-22 52.5t-54 21.5q-29 0 -50.5 -21.5t-21.5 -52.5z" />
<glyph unicode="&#x2dc;" horiz-adv-x="940" d="M131 1466q54 54 100.5 75.5t110.5 21.5q34 0 56.5 -5t66.5 -24q59 -23 96 -23q76 0 137 70l111 -166q-50 -60 -94.5 -86t-98.5 -26q-43 0 -120 26q-69 25 -111 25q-40 0 -62.5 -8t-80.5 -43z" />
<glyph unicode="&#x400;" horiz-adv-x="1073" d="M145 0v1513h813v-268h-532v-356h510v-268h-510v-353h532v-268h-813zM184 1868l117 180l455 -272l-109 -162z" />
<glyph unicode="&#x401;" horiz-adv-x="1073" d="M145 0v1513h813v-268h-532v-356h510v-268h-510v-353h532v-268h-813zM201 1649v272h272v-272h-272zM631 1649v272h272v-272h-272z" />
<glyph unicode="&#x402;" horiz-adv-x="1419" d="M14 1245v268h944v-268h-362v-323h100q173 0 268 -13t164 -47q110 -54 173 -162t63 -241q0 -116 -44 -210t-119.5 -153.5t-173.5 -91t-208 -31.5v269q101 0 181.5 60.5t80.5 162.5q0 59 -28 98t-82.5 58t-113.5 25.5t-142 6.5h-119v-653h-281v1245h-301z" />
<glyph unicode="&#x403;" horiz-adv-x="956" d="M145 0v1513h797v-268h-516v-1245h-281zM327 1773l459 275l110 -189l-464 -246z" />
<glyph unicode="&#x404;" horiz-adv-x="1642" d="M74 762q0 158 62 302t166 248t248 166t302 62q143 0 275.5 -47.5t238.5 -136.5q72 -62 116 -122t87 -155h-314q-77 100 -171 145.5t-226 45.5q-237 0 -377 -166q-75 -88 -106 -207h743v-268h-745q43 -168 179.5 -276.5t311.5 -108.5q109 0 195.5 41t179.5 137h330 q-89 -207 -277.5 -328t-421.5 -121q-109 0 -212.5 28t-190.5 79t-160.5 123.5t-124.5 159t-79.5 189t-28.5 210.5z" />
<glyph unicode="&#x405;" horiz-adv-x="1073" d="M39 432h293q18 -188 205 -188q91 0 147.5 51t56.5 133q0 101 -75 158q-34 25 -70.5 41t-185.5 71q-153 57 -234.5 163t-81.5 249q0 180 128 305t313 125q109 0 205 -45.5t157 -126.5q41 -56 61.5 -115.5t24.5 -142.5h-291q-6 76 -48 118t-112 42q-69 0 -112 -43t-43 -111 q0 -85 88 -139q19 -13 164 -66q113 -43 162.5 -69.5t93.5 -67.5q135 -123 135 -315q0 -205 -139.5 -345.5t-343.5 -140.5q-125 0 -232.5 51t-173.5 142q-44 60 -65 120t-27 146z" />
<glyph unicode="&#x406;" horiz-adv-x="571" d="M145 0v1513h281v-1513h-281z" />
<glyph unicode="&#x407;" horiz-adv-x="571" d="M-66 1649v272h273v-272h-273zM145 0v1513h281v-1513h-281zM365 1649v272h272v-272h-272z" />
<glyph unicode="&#x408;" horiz-adv-x="1011" d="M37 358h280q27 -114 134 -114q135 0 135 198v1071h280v-1079q0 -214 -109.5 -337.5t-299.5 -123.5q-98 0 -184.5 38t-145.5 106q-43 50 -63 102t-27 139z" />
<glyph unicode="&#x409;" horiz-adv-x="2072" d="M4 0l965 1513h280v-591h101q173 0 268 -13t164 -47q110 -54 172.5 -162t62.5 -241q0 -126 -56 -225t-159 -158q-75 -43 -174.5 -59.5t-273.5 -16.5h-385v1051l-627 -1051h-338zM1249 268h113q136 0 215 15q74 17 116 65t42 117q0 61 -42 106t-114 62q-79 20 -231 20h-99 v-385z" />
<glyph unicode="&#x40a;" horiz-adv-x="2056" d="M145 0v1513h281v-591h526v591h281v-591h100q173 0 268 -13t164 -47q110 -54 173 -162t63 -241q0 -126 -56 -225t-159 -158q-75 -42 -175 -59t-274 -17h-385v653h-526v-653h-281zM1233 268h113q136 0 215 15q74 17 115.5 65t41.5 117q0 61 -41.5 106t-113.5 62 q-79 20 -232 20h-98v-385z" />
<glyph unicode="&#x40b;" horiz-adv-x="1437" d="M14 1245v268h944v-268h-362v-327q63 8 258 8q132 0 239.5 -53t173.5 -160.5t66 -253.5v-459h-282v459q0 111 -69.5 154.5t-211.5 43.5q-117 0 -174 -8v-649h-281v1245h-301z" />
<glyph unicode="&#x40c;" horiz-adv-x="1257" d="M145 0v1513h281v-653l469 653h338l-569 -743l569 -770h-338l-469 666v-666h-281zM446 1773l459 275l110 -189l-464 -246z" />
<glyph unicode="&#x40d;" horiz-adv-x="1511" d="M145 0v1513h279v-1048l657 1048h285v-1513h-279v1049l-657 -1049h-285zM403 1867l117 181l454 -273l-108 -162z" />
<glyph unicode="&#x40e;" horiz-adv-x="1226" d="M8 1513h303l299 -770l305 770h304l-635 -1513h-267l156 397zM249 1919h236q0 -83 31 -119.5t96 -36.5t96 36.5t31 119.5h235q-24 -142 -121.5 -215.5t-240.5 -73.5t-241 73.5t-122 215.5z" />
<glyph unicode="&#x40f;" horiz-adv-x="1363" d="M145 0v1513h281v-1245h512v1245h281v-1513h-390l-53 -297h-188l-53 297h-390z" />
<glyph unicode="&#x410;" horiz-adv-x="1515" d="M14 0l631 1513h221l635 -1513h-309l-162 391h-538l-168 -391h-310zM594 659h324l-162 459z" />
<glyph unicode="&#x411;" horiz-adv-x="1226" d="M145 0v1513h912v-268h-631v-299h94q166 0 255.5 -13t154.5 -48q104 -55 163.5 -166.5t59.5 -247.5q0 -129 -53 -231t-150 -162q-70 -44 -165 -61t-261 -17h-379zM426 268h102q114 0 197 17q67 17 106 68.5t39 123.5q0 65 -38.5 113t-104.5 65q-84 23 -211 23h-90v-410z " />
<glyph unicode="&#x412;" horiz-adv-x="1202" d="M145 0v1513h312q173 0 260.5 -16.5t156.5 -62.5q78 -53 121 -137.5t43 -186.5q0 -107 -38.5 -172.5t-129.5 -112.5q76 -31 116.5 -59t72.5 -72q69 -94 69 -243q0 -120 -54 -218t-152 -155q-135 -78 -373 -78h-404zM426 268h139q147 0 214 45.5t67 145.5t-70.5 148 t-216.5 48h-133v-387zM426 930h90q128 0 185 36.5t57 118.5q0 154 -217 154h-115v-309z" />
<glyph unicode="&#x413;" horiz-adv-x="956" d="M145 0v1513h797v-268h-516v-1245h-281z" />
<glyph unicode="&#x414;" horiz-adv-x="1720" d="M29 268h200l519 1245h225l518 -1245h201v-565h-197l-57 297h-1155l-58 -297h-196v565zM520 268h680l-340 830z" />
<glyph unicode="&#x415;" horiz-adv-x="1073" d="M145 0v1513h813v-268h-532v-356h510v-268h-510v-353h532v-268h-813z" />
<glyph unicode="&#x416;" horiz-adv-x="1869" d="M25 0l505 770l-505 743h333l437 -694v694h280v-694l436 694h334l-506 -743l506 -770h-334l-436 707v-707h-280v707l-437 -707h-333z" />
<glyph unicode="&#x417;" horiz-adv-x="1134" d="M61 461h283q0 -91 63 -154t154 -63t154 63t63 154q0 118 -77.5 166.5t-241.5 48.5v246q282 0 282 174q0 72 -52.5 124t-127.5 52t-127.5 -52t-52.5 -124h-272q0 185 131.5 314.5t320.5 129.5t321 -129.5t132 -314.5q0 -63 -21 -120t-65.5 -103t-106.5 -66 q102 -36 171 -138t69 -208q0 -132 -67 -244.5t-182 -178t-251 -65.5t-251 65.5t-182 178t-67 244.5z" />
<glyph unicode="&#x418;" horiz-adv-x="1511" d="M145 0v1513h279v-1048l657 1048h285v-1513h-279v1049l-657 -1049h-285z" />
<glyph unicode="&#x419;" horiz-adv-x="1511" d="M145 0v1513h279v-1048l657 1048h285v-1513h-279v1049l-657 -1049h-285zM393 1919h236q0 -83 31 -119.5t96 -36.5t96 36.5t31 119.5h235q-24 -142 -121.5 -215.5t-240.5 -73.5t-241 73.5t-122 215.5z" />
<glyph unicode="&#x41a;" horiz-adv-x="1257" d="M145 0v1513h281v-653l469 653h338l-569 -743l569 -770h-338l-469 666v-666h-281z" />
<glyph unicode="&#x41b;" horiz-adv-x="1515" d="M14 0l633 1513h221l633 -1513h-303l-440 1128l-441 -1128h-303z" />
<glyph unicode="&#x41c;" horiz-adv-x="1871" d="M145 0v1513h385l408 -1146l403 1146h385v-1513h-280v1135l-395 -1135h-230l-395 1135v-1135h-281z" />
<glyph unicode="&#x41d;" horiz-adv-x="1392" d="M145 0v1513h281v-610h541v610h280v-1513h-280v635h-541v-635h-281z" />
<glyph unicode="&#x41e;" horiz-adv-x="1724" d="M74 756q0 163 62 308.5t168 249.5t254.5 165t315.5 61q158 0 302 -62t248 -166.5t165.5 -249.5t61.5 -304q0 -218 -103 -398t-282 -283.5t-396 -103.5q-164 0 -311.5 61t-253.5 165.5t-168.5 250t-62.5 306.5zM356 758q0 -107 40 -202t108 -163.5t163 -108.5t201 -40 q215 0 357.5 145t142.5 365q0 223 -145.5 369.5t-366.5 146.5q-207 0 -353.5 -149.5t-146.5 -362.5z" />
<glyph unicode="&#x41f;" horiz-adv-x="1363" d="M145 0v1513h1074v-1513h-281v1245h-512v-1245h-281z" />
<glyph unicode="&#x420;" horiz-adv-x="1173" d="M145 0v1513h375q155 0 243.5 -17t156.5 -60q92 -60 142 -161t50 -228q0 -135 -56.5 -245t-154.5 -165q-62 -34 -147 -48t-238 -14h-90v-575h-281zM426 844h82q128 0 192 20q60 17 94.5 64t34.5 112q0 72 -35 123t-96 68q-60 14 -178 14h-94v-401z" />
<glyph unicode="&#x421;" horiz-adv-x="1642" d="M74 762q0 158 62 302t166 248t248 166t302 62q143 0 275.5 -47.5t238.5 -136.5q72 -62 116 -122t87 -155h-314q-77 100 -171 145.5t-226 45.5q-237 0 -377 -166q-58 -67 -91.5 -159t-33.5 -185q0 -139 68 -258t185 -188.5t255 -69.5q109 0 195.5 41t179.5 137h330 q-89 -207 -277.5 -328t-421.5 -121q-109 0 -212.5 28t-190.5 79t-160.5 123.5t-124.5 159t-79.5 189t-28.5 210.5z" />
<glyph unicode="&#x422;" horiz-adv-x="870" d="M14 1245v268h842v-268h-281v-1245h-280v1245h-281z" />
<glyph unicode="&#x423;" horiz-adv-x="1226" d="M8 1513h303l299 -770l305 770h304l-635 -1513h-267l156 397z" />
<glyph unicode="&#x424;" horiz-adv-x="1660" d="M61 770q0 163 82 303t225 231.5t322 118.5v90h281v-90q274 -42 451 -224t177 -429t-177 -429t-451 -224v-117h-281v117q-179 27 -322 118.5t-225 231.5t-82 303zM344 770q0 -136 95.5 -240t250.5 -139v756q-155 -36 -250.5 -139t-95.5 -238zM971 391q155 35 250.5 139 t95.5 240t-95.5 240t-250.5 139v-758z" />
<glyph unicode="&#x425;" horiz-adv-x="1402" d="M14 0l521 754l-521 759h334l352 -528l363 528h326l-525 -759l525 -754h-326l-363 522l-352 -522h-334z" />
<glyph unicode="&#x426;" horiz-adv-x="1468" d="M145 0v1513h281v-1245h492v1245h280v-1245h225v-565h-196l-58 297h-1024z" />
<glyph unicode="&#x427;" horiz-adv-x="1284" d="M102 1004v509h281v-438q0 -141 50.5 -200.5t172.5 -59.5q143 0 252 23v675h281v-1513h-281v580q-191 -33 -301 -33q-81 0 -146.5 13t-124 45t-98.5 83t-63 131t-23 185z" />
<glyph unicode="&#x428;" horiz-adv-x="1832" d="M145 0v1513h281v-1245h350v1245h281v-1245h350v1245h281v-1513h-1543z" />
<glyph unicode="&#x429;" horiz-adv-x="1957" d="M145 0v1513h281v-1245h350v1245h281v-1245h350v1245h281v-1245h225v-565h-197l-57 297h-1514z" />
<glyph unicode="&#x42a;" horiz-adv-x="1456" d="M14 1245v268h619v-591h100q173 0 268 -13t164 -47q110 -54 173 -162t63 -241q0 -126 -56 -225t-159 -158q-75 -42 -175 -59t-274 -17h-385v1245h-338zM633 268h112q137 0 216 15q74 17 115.5 65t41.5 117q0 61 -41.5 106t-113.5 62q-79 20 -232 20h-98v-385z" />
<glyph unicode="&#x42b;" horiz-adv-x="1771" d="M145 0v1513h281v-591h100q173 0 268 -13t164 -47q110 -54 173 -162t63 -241q0 -126 -56 -225t-159 -158q-75 -42 -175 -59t-274 -17h-385zM426 268h113q135 0 215 15q74 17 115.5 65t41.5 117q0 61 -41.5 106t-113.5 62q-79 20 -232 20h-98v-385zM1346 0v1513h280v-1513 h-280z" />
<glyph unicode="&#x42c;" horiz-adv-x="1249" d="M145 0v1513h281v-591h100q173 0 268 -13t164 -47q110 -54 173 -162t63 -241q0 -126 -56 -225t-159 -158q-75 -42 -175 -59t-274 -17h-385zM426 268h113q135 0 215 15q74 17 115.5 65t41.5 117q0 61 -41.5 106t-113.5 62q-79 20 -232 20h-98v-385z" />
<glyph unicode="&#x42d;" horiz-adv-x="1642" d="M74 422h329q93 -96 179.5 -137t195.5 -41q175 0 312 108.5t180 276.5h-746v268h744q-30 118 -107 207q-140 166 -377 166q-132 0 -226 -45.5t-171 -145.5h-313q43 96 86.5 156t115.5 121q105 89 238.5 136.5t276.5 47.5q158 0 302 -62t248 -166t166 -248t62 -302 q0 -161 -63 -307.5t-169.5 -252t-254 -167.5t-310.5 -62q-233 0 -421 121t-277 328z" />
<glyph unicode="&#x42e;" horiz-adv-x="2271" d="M145 0v1513h281v-610h182q34 186 145.5 333.5t283 231.5t372.5 84q161 0 307 -63t251.5 -169.5t168 -253.5t62.5 -308q0 -166 -61.5 -313.5t-167 -253.5t-252.5 -168t-312 -62q-202 0 -375.5 88t-285.5 241.5t-140 344.5h-178v-635h-281zM879 758q0 -145 69.5 -266.5 t190 -191t264.5 -69.5q220 0 366 149.5t146 373.5q0 227 -149 377.5t-375 150.5q-139 0 -257 -70t-186.5 -190.5t-68.5 -263.5z" />
<glyph unicode="&#x42f;" horiz-adv-x="1239" d="M45 0l358 578q-41 10 -79 32q-101 57 -159.5 170.5t-58.5 251.5q0 131 52 236t147 166q69 44 160.5 61.5t251.5 17.5h377v-1513h-281v547h-115l-329 -547h-324zM389 1026q0 -68 36.5 -119.5t98.5 -68.5q77 -23 203 -23h86v430h-98q-117 0 -189 -16q-64 -17 -100.5 -72 t-36.5 -131z" />
<glyph unicode="&#x430;" horiz-adv-x="1366" d="M57 563q0 171 74 307.5t206 213.5t298 77q123 0 212 -42.5t159 -135.5v152h249v-1135h-249v147q-82 -93 -169.5 -133.5t-207.5 -40.5q-164 0 -294.5 75.5t-204 210.5t-73.5 304zM332 557q0 -149 93.5 -241.5t242.5 -92.5q148 0 238.5 94t90.5 246q0 154 -94.5 251 t-243.5 97q-142 0 -234.5 -100t-92.5 -254z" />
<glyph unicode="&#x431;" horiz-adv-x="1333" d="M80 850q0 345 155 530.5t472 210.5l493 39v-244l-483 -40q-219 -19 -325.5 -123.5t-108.5 -298.5l4 -2q40 78 148 147.5t241 69.5q97 0 188.5 -29t165.5 -82.5t129.5 -125t86 -160t30.5 -183.5q0 -160 -80.5 -295t-219 -213t-302.5 -78q-155 0 -286.5 68.5t-211.5 198.5 q-33 54 -53.5 123t-29 156.5t-11 155t-2.5 175.5zM344 561q0 -142 96 -240t232 -98q137 0 233 97.5t96 238.5t-96.5 238.5t-236.5 97.5q-132 0 -228 -98t-96 -236z" />
<glyph unicode="&#x432;" horiz-adv-x="1107" d="M111 0v1135h467q193 0 310.5 -90t117.5 -259q0 -65 -39.5 -119t-94.5 -77q71 -27 120.5 -83.5t49.5 -139.5q0 -154 -110 -260.5t-283 -106.5h-538zM383 248h248q62 0 99.5 32.5t37.5 86.5t-37.5 86t-99.5 32h-248v-237zM383 684h192q84 0 127 27.5t43 74.5t-43.5 74 t-126.5 27h-192v-203z" />
<glyph unicode="&#x433;" horiz-adv-x="790" d="M111 0v1135h643v-248h-371v-887h-272z" />
<glyph unicode="&#x434;" horiz-adv-x="1384" d="M20 248h175l378 887h238l379 -887h174v-518h-195l-57 270h-838l-57 -270h-197v518zM477 248h430l-215 512z" />
<glyph unicode="&#x435;" horiz-adv-x="1298" d="M57 563q0 164 79.5 301.5t217 217t301.5 79.5q167 0 301 -78.5t209.5 -218t75.5 -313.5q0 -56 -10 -105h-879q25 -103 109 -163t205 -60q84 0 140 25.5t109 87.5h297q-24 -77 -90 -158q-176 -205 -450 -205q-128 0 -242 46t-195.5 124.5t-129.5 188t-48 231.5zM344 686 h629q-26 109 -107 167t-207 58q-122 0 -202.5 -57.5t-112.5 -167.5z" />
<glyph unicode="&#x436;" horiz-adv-x="1677" d="M4 0l432 571l-407 564h317l356 -529v529h273v-529l356 529h318l-408 -564l432 -571h-332l-366 528v-528h-273v528l-366 -528h-332z" />
<glyph unicode="&#x437;" horiz-adv-x="978" d="M49 358h270q6 -59 51 -97t111 -38t112 39t46 96q0 36 -11.5 61.5t-30.5 40.5t-50.5 23.5t-63 11t-77.5 3.5v180q105 0 153.5 28.5t48.5 98.5q0 45 -37 77.5t-90 32.5q-56 0 -93 -31t-46 -79h-256q11 153 122 255.5t273 102.5q163 0 277 -104.5t114 -253.5 q0 -70 -44.5 -130t-116.5 -77v-2q85 -22 143.5 -90.5t58.5 -147.5q0 -105 -58 -193.5t-157.5 -140t-216.5 -51.5q-176 0 -298.5 112.5t-133.5 272.5z" />
<glyph unicode="&#x438;" horiz-adv-x="1275" d="M111 0v1135h270v-750l508 750h276v-1135h-270v750l-508 -750h-276z" />
<glyph unicode="&#x439;" horiz-adv-x="1275" d="M111 0v1135h270v-750l508 750h276v-1135h-270v750l-508 -750h-276zM301 1528h207q0 -77 31 -111.5t100 -34.5t100 34.5t31 111.5h207q-45 -266 -338 -266t-338 266z" />
<glyph unicode="&#x43a;" horiz-adv-x="1134" d="M111 0v1135h272v-523l393 523h330l-453 -564l477 -571h-354l-393 522v-522h-272z" />
<glyph unicode="&#x43b;" horiz-adv-x="1171" d="M6 0l473 1135h213l473 -1135h-291l-288 754l-289 -754h-291z" />
<glyph unicode="&#x43c;" horiz-adv-x="1527" d="M111 0v1135h311l342 -582l342 582h311v-1135h-272v750l-301 -514h-160l-301 514v-750h-272z" />
<glyph unicode="&#x43d;" horiz-adv-x="1265" d="M111 0v1135h272v-439h500v439h272v-1135h-272v449h-500v-449h-272z" />
<glyph unicode="&#x43e;" horiz-adv-x="1320" d="M57 565q0 122 47.5 232.5t129 190t194.5 126.5t238 47q162 0 300 -80t218 -217.5t80 -298.5q0 -160 -80.5 -296.5t-219.5 -216t-302 -79.5q-164 0 -303.5 79.5t-220.5 216t-81 296.5zM332 567q0 -142 96 -243t231 -101q136 0 233 100.5t97 241.5q0 146 -97 246t-237 100 q-132 0 -227.5 -101.5t-95.5 -242.5z" />
<glyph unicode="&#x43f;" horiz-adv-x="1265" d="M111 0v1135h1044v-1135h-272v887h-500v-887h-272z" />
<glyph unicode="&#x440;" horiz-adv-x="1355" d="M111 -379v1514h249v-134q135 160 373 160q162 0 291 -75.5t201.5 -210.5t72.5 -304q0 -170 -73 -306.5t-202.5 -214t-291.5 -77.5q-104 0 -187 32t-161 101v-485h-272zM367 563q0 -145 96 -242.5t237 -97.5q137 0 230.5 98.5t93.5 243.5q0 150 -94 248t-238 98 q-138 0 -231.5 -99.5t-93.5 -248.5z" />
<glyph unicode="&#x441;" horiz-adv-x="1280" d="M57 567q0 164 79 300.5t216.5 215t302.5 78.5q122 0 232.5 -43.5t193.5 -124.5q54 -53 85.5 -103.5t60.5 -133.5h-307q-80 155 -265 155q-142 0 -232.5 -95.5t-90.5 -246.5q0 -149 94.5 -247.5t235.5 -98.5q84 0 145.5 36t112.5 114h307q-71 -191 -217.5 -295.5 t-345.5 -104.5q-124 0 -236.5 47t-193.5 126t-129 189t-48 232z" />
<glyph unicode="&#x442;" horiz-adv-x="874" d="M37 887v248h801v-248h-265v-887h-272v887h-264z" />
<glyph unicode="&#x443;" horiz-adv-x="1163" d="M6 1135h311l252 -736l275 736h313l-655 -1514h-293l213 485z" />
<glyph unicode="&#x444;" horiz-adv-x="1595" d="M68 565q0 265 142.5 414t451.5 176v358h272v-358q310 -26 452 -175t142 -415q0 -265 -142 -412t-452 -173v-359h-272v359q-309 26 -451.5 173t-142.5 412zM342 565q0 -148 76.5 -230.5t243.5 -103.5v672q-167 -23 -243.5 -106.5t-76.5 -231.5zM934 231 q168 21 243.5 103.5t75.5 230.5t-75.5 231.5t-243.5 106.5v-672z" />
<glyph unicode="&#x445;" horiz-adv-x="1142" d="M6 0l402 586l-349 549h308l204 -342l201 342h307l-346 -549l404 -586h-328l-238 389l-237 -389h-328z" />
<glyph unicode="&#x446;" horiz-adv-x="1355" d="M111 0v1135h272v-887h457v887h272v-887h217v-518h-196l-58 270h-964z" />
<glyph unicode="&#x447;" horiz-adv-x="1093" d="M72 805v330h272v-330q0 -103 39 -139.5t149 -36.5q94 0 179 18v488h272v-1135h-272v408q-143 -27 -250 -27q-183 0 -286 111.5t-103 312.5z" />
<glyph unicode="&#x448;" horiz-adv-x="1705" d="M111 0v1135h272v-887h334v887h272v-887h334v887h272v-1135h-1484z" />
<glyph unicode="&#x449;" horiz-adv-x="1839" d="M111 0v1135h272v-887h334v887h272v-887h334v887h272v-887h217v-518h-196l-57 270h-1448z" />
<glyph unicode="&#x44a;" horiz-adv-x="1269" d="M37 887v248h567v-390h227q173 0 283.5 -108.5t110.5 -263.5t-110.5 -264t-283.5 -109h-499v887h-295zM604 248h209q61 0 99 35t38 90t-38 90t-99 35h-209v-250z" />
<glyph unicode="&#x44b;" horiz-adv-x="1488" d="M111 0v1135h272v-390h227q173 0 283.5 -108.5t110.5 -263.5t-110.5 -264t-283.5 -109h-499zM383 248h209q61 0 99 35t38 90t-38 90t-99 35h-209v-250zM1106 0v1135h272v-1135h-272z" />
<glyph unicode="&#x44c;" horiz-adv-x="1048" d="M111 0v1135h272v-390h227q173 0 283.5 -108.5t110.5 -263.5t-110.5 -264t-283.5 -109h-499zM383 248h209q61 0 99 35t38 90t-38 90t-99 35h-209v-250z" />
<glyph unicode="&#x44d;" horiz-adv-x="1267" d="M53 342h318q91 -119 235 -119q109 0 193.5 62.5t118.5 165.5h-480v239h482q-31 102 -113.5 161.5t-194.5 59.5q-165 0 -245 -125h-314q70 170 216 272.5t343 102.5q165 0 302.5 -78.5t216.5 -215t79 -300.5q0 -162 -81 -299t-220.5 -216t-304.5 -79q-192 0 -334.5 96 t-216.5 273z" />
<glyph unicode="&#x44e;" horiz-adv-x="1783" d="M111 0v1135h272v-439h135q45 206 213 339.5t389 133.5q123 0 235 -48t193.5 -129t129.5 -193t48 -234q0 -162 -82 -300.5t-222.5 -219t-305.5 -80.5q-221 0 -389.5 138t-210.5 346h-133v-449h-272zM778 567q0 -146 99 -249t237 -103q140 0 239 102.5t99 247.5 q0 149 -99.5 252t-242.5 103q-135 0 -233.5 -104.5t-98.5 -248.5z" />
<glyph unicode="&#x44f;" horiz-adv-x="1050" d="M35 0l287 418q-112 41 -178 135.5t-66 210.5q0 155 110 263t283 108h469v-1135h-272v393h-66l-240 -393h-327zM352 764q0 -54 38 -88.5t99 -34.5h179v246h-179q-61 0 -99 -34.5t-38 -88.5z" />
<glyph unicode="&#x450;" horiz-adv-x="1298" d="M57 563q0 164 79.5 301.5t217 217t301.5 79.5q167 0 301 -78.5t209.5 -218t75.5 -313.5q0 -56 -10 -105h-879q25 -103 109 -163t205 -60q84 0 140 25.5t109 87.5h297q-24 -77 -90 -158q-176 -205 -450 -205q-128 0 -242 46t-195.5 124.5t-129.5 188t-48 231.5zM289 1509 l117 181l454 -273l-108 -162zM344 686h629q-26 109 -107 167t-207 58q-122 0 -202.5 -57.5t-112.5 -167.5z" />
<glyph unicode="&#x451;" horiz-adv-x="1298" d="M57 563q0 164 79.5 301.5t217 217t301.5 79.5q167 0 301 -78.5t209.5 -218t75.5 -313.5q0 -56 -10 -105h-879q25 -103 109 -163t205 -60q84 0 140 25.5t109 87.5h297q-24 -77 -90 -158q-176 -205 -450 -205q-128 0 -242 46t-195.5 124.5t-129.5 188t-48 231.5zM313 1290 v273h273v-273h-273zM344 686h629q-26 109 -107 167t-207 58q-122 0 -202.5 -57.5t-112.5 -167.5zM743 1290v273h273v-273h-273z" />
<glyph unicode="&#x452;" horiz-adv-x="1382" d="M27 1135v239h243v139h273v-139h286v-239h-286v-279q62 56 130.5 81.5t157.5 25.5q125 0 222.5 -49t152.5 -140q38 -63 54 -138.5t16 -195.5v-440q0 -104 -68.5 -193t-173 -137.5t-215.5 -48.5v248q80 0 132.5 43t52.5 115v352q0 180 -51 256t-171 76q-143 0 -202 -115 q-37 -67 -37 -221v-375h-273v1135h-243z" />
<glyph unicode="&#x453;" horiz-adv-x="790" d="M111 0v1135h643v-248h-371v-887h-272zM217 1415l459 275l110 -189l-464 -246z" />
<glyph unicode="&#x454;" horiz-adv-x="1267" d="M53 567q0 164 79 300.5t216.5 215t302.5 78.5q197 0 343 -102.5t216 -272.5h-313q-80 125 -246 125q-112 0 -194 -59.5t-113 -161.5h481v-239h-479q34 -103 118 -165.5t193 -62.5q145 0 236 119h317q-74 -177 -216.5 -273t-334.5 -96q-165 0 -304.5 79t-220.5 216 t-81 299z" />
<glyph unicode="&#x455;" horiz-adv-x="897" d="M31 360h274q20 -72 56 -104.5t96 -32.5q54 0 88.5 31.5t34.5 79.5q0 56 -52 88q-22 13 -43 22t-98 35q-170 57 -242.5 134t-72.5 202q0 146 108.5 246t268.5 100q88 0 166.5 -35t132.5 -98q37 -44 53.5 -91t19.5 -116h-266q-18 90 -106 90q-44 0 -74.5 -27.5t-30.5 -68.5 q0 -52 53 -76q29 -12 140 -47q172 -53 243.5 -128t71.5 -204q0 -163 -118 -275t-288 -112q-105 0 -197.5 44.5t-146.5 119.5q-32 46 -48 95t-23 128z" />
<glyph unicode="&#x456;" horiz-adv-x="493" d="M111 0v1135h272v-1135h-272zM111 1257v256h272v-256h-272z" />
<glyph unicode="&#x457;" horiz-adv-x="493" d="M-104 1290v273h272v-273h-272zM111 0v1135h272v-1135h-272zM326 1290v273h272v-273h-272z" />
<glyph unicode="&#x458;" horiz-adv-x="522" d="M27 -115q41 7 61 15t33 31t15.5 54.5t2.5 96.5v1053h273v-1059q0 -127 -29 -212.5t-92 -144.5q-106 -98 -264 -98v264zM139 1257v256h273v-256h-273z" />
<glyph unicode="&#x459;" horiz-adv-x="1665" d="M4 0l723 1135h272v-390h228q173 0 283 -108.5t110 -263.5t-110 -264t-283 -109h-500v684l-412 -684h-311zM999 248h209q61 0 99.5 35.5t38.5 89.5t-38.5 89.5t-99.5 35.5h-209v-250z" />
<glyph unicode="&#x45a;" horiz-adv-x="1796" d="M111 0v1135h272v-439h475v439h272v-390h228q173 0 283 -108.5t110 -263.5t-110 -264t-283 -109h-500v449h-475v-449h-272zM1130 248h209q61 0 99.5 35.5t38.5 89.5t-38.5 89.5t-99.5 35.5h-209v-250z" />
<glyph unicode="&#x45b;" horiz-adv-x="1382" d="M27 1135v239h243v139h273v-139h286v-239h-286v-279q62 56 130.5 81.5t157.5 25.5q125 0 222.5 -49t152.5 -140q38 -63 54 -138.5t16 -195.5v-440h-272v379q0 180 -51 256t-171 76q-143 0 -202 -115q-37 -67 -37 -221v-375h-273v1135h-243z" />
<glyph unicode="&#x45c;" horiz-adv-x="1134" d="M111 0v1135h272v-523l393 523h330l-453 -564l477 -571h-354l-393 522v-522h-272zM409 1415l459 275l110 -189l-464 -246z" />
<glyph unicode="&#x45d;" horiz-adv-x="1275" d="M111 0v1135h270v-750l508 750h276v-1135h-270v750l-508 -750h-276zM284 1509l117 181l454 -273l-108 -162z" />
<glyph unicode="&#x45e;" horiz-adv-x="1163" d="M6 1135h311l252 -736l275 736h313l-655 -1514h-293l213 485zM243 1528h207q0 -77 31 -111.5t100 -34.5t100 34.5t31 111.5h207q-45 -266 -338 -266t-338 266z" />
<glyph unicode="&#x45f;" horiz-adv-x="1265" d="M111 0v1135h272v-887h500v887h272v-1135h-373l-55 -285h-188l-56 285h-372z" />
<glyph unicode="&#x462;" horiz-adv-x="1374" d="M14 1079v269h256v165h281v-165h295v-269h-295v-178h100q175 0 269 -12.5t163 -46.5q111 -54 173.5 -158t62.5 -235q0 -124 -55.5 -219t-159.5 -154q-75 -42 -175 -59t-274 -17h-385v1079h-256zM551 268h113q136 0 215 15q157 37 157 172q0 120 -155 157q-82 21 -232 21 h-98v-365z" />
<glyph unicode="&#x463;" horiz-adv-x="1212" d="M37 928v248h237v337h273v-337h258v-248h-258v-197h227q174 0 283.5 -105t109.5 -259t-110 -260.5t-283 -106.5h-500v928h-237zM547 248h209q62 0 99.5 32.5t37.5 86.5t-37.5 85t-99.5 31h-209v-235z" />
<glyph unicode="&#x490;" horiz-adv-x="956" d="M145 0v1513h549l66 238h182v-506h-516v-1245h-281z" />
<glyph unicode="&#x491;" horiz-adv-x="790" d="M111 0v1135h413l64 235h166v-483h-371v-887h-272z" />
<glyph unicode="&#x2000;" horiz-adv-x="1024" />
<glyph unicode="&#x2001;" horiz-adv-x="2048" />
<glyph unicode="&#x2002;" horiz-adv-x="1024" />
<glyph unicode="&#x2003;" horiz-adv-x="2048" />
<glyph unicode="&#x2004;" horiz-adv-x="682" />
<glyph unicode="&#x2005;" horiz-adv-x="512" />
<glyph unicode="&#x2006;" horiz-adv-x="341" />
<glyph unicode="&#x2007;" horiz-adv-x="341" />
<glyph unicode="&#x2008;" horiz-adv-x="256" />
<glyph unicode="&#x2009;" horiz-adv-x="409" />
<glyph unicode="&#x200a;" horiz-adv-x="113" />
<glyph unicode="&#x2010;" horiz-adv-x="690" d="M61 469v242h568v-242h-568z" />
<glyph unicode="&#x2011;" horiz-adv-x="690" d="M61 469v242h568v-242h-568z" />
<glyph unicode="&#x2012;" horiz-adv-x="690" d="M61 469v242h568v-242h-568z" />
<glyph unicode="&#x2013;" horiz-adv-x="1024" d="M0 469v242h1024v-242h-1024z" />
<glyph unicode="&#x2014;" horiz-adv-x="2048" d="M0 469v242h2048v-242h-2048z" />
<glyph unicode="&#x2018;" horiz-adv-x="600" d="M164 954v287q0 74 20.5 122.5t67.5 88.5q73 61 184 61v-137q-65 -12 -93 -38.5t-28 -75.5q0 -23 2 -35h119v-273h-272z" />
<glyph unicode="&#x2019;" horiz-adv-x="600" d="M164 954v138q65 12 93 40t28 80q0 25 -2 39h-119v262h272v-286q0 -172 -135 -244q-57 -29 -137 -29z" />
<glyph unicode="&#x201a;" horiz-adv-x="600" d="M164 0v262h272v-276q0 -172 -135 -244q-57 -29 -137 -29v137q64 12 92.5 38.5t28.5 74.5q0 23 -2 37h-119z" />
<glyph unicode="&#x201c;" horiz-adv-x="1024" d="M164 954v287q0 74 20.5 122.5t67.5 88.5q73 61 184 61v-137q-66 -12 -93.5 -37.5t-27.5 -76.5q0 -23 2 -35h119v-273h-272zM588 954v287q0 74 20.5 122.5t67.5 88.5q73 61 184 61v-137q-64 -12 -92.5 -38.5t-28.5 -73.5q0 -23 2 -37h119v-273h-272z" />
<glyph unicode="&#x201d;" horiz-adv-x="1024" d="M164 954v138q64 12 92.5 40t28.5 80q0 25 -2 39h-119v262h272v-286q0 -172 -135 -244q-57 -29 -137 -29zM588 954v138q65 12 93 40t28 80q0 25 -2 39h-119v262h272v-286q0 -172 -135 -244q-59 -29 -137 -29z" />
<glyph unicode="&#x201e;" horiz-adv-x="1024" d="M164 0v262h272v-276q0 -172 -135 -244q-57 -29 -137 -29v137q64 12 92.5 38.5t28.5 74.5q0 23 -2 37h-119zM588 0v262h272v-276q0 -172 -135 -244q-57 -29 -137 -29v137q64 12 92.5 38.5t28.5 74.5q0 23 -2 37h-119z" />
<glyph unicode="&#x2020;" horiz-adv-x="1140" d="M102 893v242h334v378h273v-378h329v-242h-329v-1155h-273v1155h-334z" />
<glyph unicode="&#x2021;" horiz-adv-x="1140" d="M102 532v242h332v195h-332v241h332v303h273v-303h331v-241h-331v-195h331v-242h-331v-794h-273v794h-332z" />
<glyph unicode="&#x2022;" horiz-adv-x="1228" d="M268 645q0 145 101.5 245.5t248.5 100.5q139 0 239.5 -101.5t100.5 -242.5q0 -144 -101.5 -245t-244.5 -101q-141 0 -242.5 101.5t-101.5 242.5z" />
<glyph unicode="&#x2026;" horiz-adv-x="2048" d="M205 0v262h272v-262h-272zM887 0v262h272v-262h-272zM1569 0v262h272v-262h-272z" />
<glyph unicode="&#x202f;" horiz-adv-x="409" />
<glyph unicode="&#x2030;" horiz-adv-x="2607" d="M47 1169q0 157 108 264t265 107q151 0 259.5 -109t108.5 -260q0 -154 -108 -262t-262 -108t-262.5 108t-108.5 260zM268 1171q0 -63 44 -107t106 -44q63 0 107 44t44 107t-44.5 107.5t-108.5 44.5q-61 0 -104.5 -44.5t-43.5 -107.5zM461 0l624 1513h211l-626 -1513h-209z M973 342q0 157 108 264t265 107q151 0 259.5 -109t108.5 -260q0 -154 -108.5 -262.5t-262.5 -108.5q-153 0 -261.5 108.5t-108.5 260.5zM1194 344q0 -63 43.5 -107t105.5 -44q63 0 107.5 44t44.5 107t-45 107.5t-109 44.5q-61 0 -104 -44.5t-43 -107.5zM1819 342 q0 157 107.5 264t264.5 107q151 0 260 -109t109 -260q0 -154 -108.5 -262.5t-262.5 -108.5q-153 0 -261.5 108.5t-108.5 260.5zM2040 344q0 -63 43.5 -107t105.5 -44q63 0 107.5 44t44.5 107t-45 107.5t-109 44.5q-61 0 -104 -44.5t-43 -107.5z" />
<glyph unicode="&#x2039;" horiz-adv-x="505" d="M92 489v205l285 267v-252l-137 -117l137 -119v-252z" />
<glyph unicode="&#x203a;" horiz-adv-x="505" d="M129 221v252l137 119l-137 117v252l285 -267v-205z" />
<glyph unicode="&#x2044;" horiz-adv-x="327" d="M-248 0l627 1513h194l-626 -1513h-195z" />
<glyph unicode="&#x205f;" horiz-adv-x="512" />
<glyph unicode="&#x20ac;" horiz-adv-x="1558" d="M35 422l88 252h149q-4 54 -4 82v24h-229l88 252h192q86 226 287 367t451 141q272 0 489 -170l-100 -287q-70 88 -172 137.5t-217 49.5q-131 0 -244 -64.5t-182 -173.5h799l-89 -252h-790v-24q0 -42 6 -82h746l-89 -252h-540q70 -83 170 -130.5t213 -47.5q115 0 217 49 t172 135v-352q-179 -103 -389 -103q-232 0 -424 123.5t-289 325.5h-309z" />
<glyph unicode="&#x2122;" horiz-adv-x="1961" d="M102 1360v153h723v-153h-278v-653h-166v653h-279zM887 707v806h248l233 -526l250 526h242v-806h-166v587l-271 -587h-108l-262 585v-585h-166z" />
<glyph unicode="&#x25fc;" horiz-adv-x="1135" d="M0 0v1135h1135v-1135h-1135z" />
</font>
</defs>
</svg>
